<svg xmlns="http://www.w3.org/2000/svg" viewBox="0 0 274.68 262.19"><defs><style>.cls-1{fill:#219dc8;}.cls-2{fill:#414242;}.cls-3{fill:#d3d3d3;}.cls-4{fill:#a4a4a4;}.cls-5{fill:#dfdfdf;}.cls-6{fill:#f2f2f2;}.cls-7{fill:#ffbe2e;}.cls-8{fill:#f8e7cc;}.cls-9{fill:#f3ba26;}.cls-10{fill:#fff;}.cls-11{fill:#d5d5d5;}.cls-12{fill:#209ec9;}.cls-13{fill:#82d0f2;}.cls-14{fill:#075a88;}.cls-15{fill:#198cbf;}.cls-16{fill:#dc9d0e;}.cls-17{fill:#f3e2cc;}</style></defs><g id="Layer_2" data-name="Layer 2"><g id="content"><g id="illustration"><path class="cls-1" d="M140.62,262.19c-33.64,0-65.34-7.61-89.26-21.42C26.6,226.47,13,207.17,13,186.41s13.64-40,38.4-54.35c23.92-13.81,55.62-21.42,89.26-21.42s65.34,7.61,89.26,21.42c24.76,14.29,38.4,33.6,38.4,54.35s-13.64,40.06-38.4,54.36C206,254.58,174.26,262.19,140.62,262.19Zm0-141.8c-30.55,0-61.1,6.71-84.36,20.14C34.64,153,22.74,169.3,22.74,186.41s11.9,33.41,33.52,45.89c46.51,26.86,122.2,26.86,168.72,0,21.61-12.48,33.52-28.77,33.52-45.89S246.59,153,225,140.53h0C201.72,127.1,171.17,120.39,140.62,120.39Z"/><path class="cls-2" d="M20.51,226.19c-18.35-21.13-19.44-45.68-3-67.35l.78.59c-16.13,21.27-15,45.37,3,66.12Z"/><path class="cls-2" d="M35.73,239.94a96.49,96.49,0,0,1-10.87-9.13l.69-.69a94.32,94.32,0,0,0,10.75,9Z"/><path class="cls-3" d="M147,261.39c-33.64,0-65.34-7.6-89.26-21.41-24.76-14.3-38.4-33.6-38.4-54.36S33,145.56,57.76,131.26c23.92-13.81,55.62-21.41,89.26-21.41s65.34,7.6,89.25,21.41c24.77,14.3,38.41,33.61,38.41,54.36S261,225.68,236.27,240C212.35,253.79,180.66,261.39,147,261.39Zm0-141.8c-30.55,0-61.11,6.72-84.37,20.15C41,152.22,29.14,168.51,29.14,185.62S41,219,62.65,231.5c46.52,26.86,122.21,26.86,168.73,0C253,219,264.89,202.73,264.89,185.62s-11.9-33.41-33.51-45.88h0C208.12,126.31,177.57,119.59,147,119.59Z"/><path class="cls-2" d="M137.29,262c-31.53,0-63.06-6.93-87.06-20.78C26.89,227.73,14,209.78,14,190.66s12.86-37.06,36.2-50.54c48-27.72,126.11-27.72,174.11,0,23.35,13.48,36.21,31.43,36.21,50.54s-12.86,37.07-36.21,50.55C200.34,255.06,168.82,262,137.29,262Zm0-141.69c-31.35,0-62.7,6.89-86.57,20.67C27.69,154.26,15,171.91,15,190.66s12.68,36.4,35.71,49.7c47.74,27.56,125.4,27.56,173.13,0,23-13.3,35.72-31,35.72-49.7s-12.69-36.4-35.72-49.69C200,127.19,168.64,120.3,137.29,120.3Z"/><path class="cls-4" d="M176.46,5.78,138.91,80.12s0,0,0,0l6-3.85h0L182.23,2.37s0,0,0,0l-5.75,3.42Z"/><path class="cls-2" d="M138.91,80.45l-.3-.26.09-.18L176.24,5.64l.06,0,5.94-3.54.29.25-.08.19-37.32,74-.08,0ZM176.64,6,139.51,79.48l5.25-3.37L181.66,3Z"/><path class="cls-5" d="M138.87,80.16l-3.34-2s0,0,0,0L172.86,3.83h0l3.56,1.94a0,0,0,0,1,0,0L138.9,80.16A0,0,0,0,1,138.87,80.16Z"/><path class="cls-2" d="M138.86,80.43l-.11-.06-3.54-2.1.1-.23L172.69,3.63l.21-.08.1.06,3.76,2.05-.09.23-37.6,74.47Zm-3-2.36,2.95,1.76,37.34-74L173,4.15Z"/><path class="cls-6" d="M172.89,3.8l6-3.52h0l3.33,2a0,0,0,0,1,0,0l-5.76,3.43h0l-3.56-1.94S172.88,3.8,172.89,3.8Z"/><path class="cls-2" d="M176.47,6.05,176.32,6l-3.67-2v-.3l.13-.08L178.88,0l.13.06,3.47,2.11v.3l-.13.08ZM173.36,3.8l3.09,1.69,5.33-3.17L178.89.56Z"/><polygon class="cls-6" points="108.65 78 147.89 55.1 151.88 57.4 109.79 81.84 108.65 78"/><path class="cls-2" d="M109.64,82.21l-1.28-4.32,39.53-23.07,4.48,2.58-.37.21Zm-.7-4.09,1,3.35L151.39,57.4l-3.5-2Z"/><polygon class="cls-4" points="109.79 81.84 110.64 84.66 152.77 60.4 151.88 57.4 109.79 81.84"/><path class="cls-2" d="M110.5,85l-1-3.29.16-.1L152,57l1,3.48-.17.1ZM110.08,82l.71,2.33,41.69-24-.75-2.51Z"/><path class="cls-4" d="M134.18,30.06,96.64,104.41s0,0,0,0l6-3.86h0L140,26.66s0,0,0,0l-5.74,3.42Z"/><path class="cls-2" d="M96.64,104.73l-.3-.25.08-.19L134,29.87l.07,0,5.88-3.5.29.23-.07.19-37.33,74-.08,0Zm37.73-74.5L97.23,103.77l5.25-3.37,36.9-73.15Z"/><path class="cls-5" d="M96.6,104.45l-3.34-2s0,0,0,0l37.34-74.33h0l3.56,1.94s0,0,0,0L96.62,104.44S96.61,104.45,96.6,104.45Z"/><path class="cls-2" d="M96.59,104.72l-.12-.06-3.53-2.11.09-.22,37.38-74.42.22-.07.11.06L134.49,30l-.09.23L96.79,104.64Zm-3-2.36,2.94,1.75,37.35-73.95-3.16-1.73Z"/><path class="cls-6" d="M130.62,28.08l6-3.52h0l3.33,2s0,0,0,0l-5.77,3.43h0l-3.55-1.94S130.61,28.09,130.62,28.08Z"/><path class="cls-2" d="M134.19,30.34l-.14-.08-3.68-2V28l.13-.09,6.1-3.58.14.06,3.46,2.11v.29l-.13.08Zm-3.1-2.25,3.09,1.69,5.32-3.17-2.88-1.77Z"/><path class="cls-4" d="M181.64,8.76l33.82,115.76s0,0,0,0l6.12-3.4a0,0,0,0,0,0,0L187.44,5.32h0l-5.76,3.44Z"/><path class="cls-2" d="M215.5,124.8l-.23-.09,0-.12L181.41,8.84l-.07-.17.17-.13L187.39,5l.24.09,0,.13,34.23,116-.17.11ZM181.92,8.87l33.7,115.31,5.71-3.18-34-115.33Z"/><path class="cls-6" d="M177.64,6.37l4,2.38h0l5.77-3.43s0,0,0,0l-4-2.37h0l-5.77,3.43S177.63,6.37,177.64,6.37Z"/><path class="cls-2" d="M181.64,9,181.5,9l-4.1-2.45V6.22l.13-.08,5.89-3.51.14.08,4.1,2.44v.29l-.13.09ZM178.1,6.36l3.54,2.11L187,5.3l-3.53-2.11Z"/><path class="cls-5" d="M177.66,6.38l4,2.37h0L215.46,124.5s0,0,0,0l-4-2.37h0L177.63,6.4S177.64,6.37,177.66,6.38Z"/><path class="cls-2" d="M215.48,124.81l-.17-.08-4.05-2.41,0-.09L177.35,6.31l.27-.23.16.09,4.06,2.42,0,.11,33.87,115.89ZM211.66,122l3.4,2L181.43,8.91l-3.4-2Z"/><polygon class="cls-6" points="147.48 37.54 181 17.91 184.98 20.21 148.62 41.38 147.48 37.54"/><path class="cls-2" d="M148.47,41.75l-1.28-4.33L181,17.63l4.48,2.58Zm-.7-4.1,1,3.36,35.73-20.8-3.49-2Z"/><polygon class="cls-4" points="148.62 41.38 149.47 44.19 185.88 23.21 184.98 20.21 148.62 41.38"/><path class="cls-2" d="M149.33,44.56l-1-3.3,36.8-21.42,1,3.48-.17.1Zm-.42-3.07.71,2.34,36-20.74-.75-2.52Z"/><polygon class="cls-6" points="166.7 103.36 200.22 83.73 204.2 86.03 167.84 107.2 166.7 103.36"/><path class="cls-2" d="M167.69,107.57l-1.28-4.32,33.8-19.8L204.69,86Zm-.7-4.09,1,3.35L203.72,86l-3.5-2Z"/><polygon class="cls-4" points="167.84 107.2 168.69 110.02 205.1 89.03 204.2 86.03 167.84 107.2"/><polygon class="cls-6" points="183.6 24.52 200.97 84.17 166.97 104.28 149.47 44.19 183.6 24.52"/><path class="cls-2" d="M166.83,104.65l-.09-.3L149.19,44.08l.16-.1,34.4-19.83,17.51,60.14-.16.09ZM149.76,44.31l17.36,59.6,33.57-19.85L183.46,24.88Z"/><path class="cls-4" d="M139.35,33.07l33.82,115.76h0l6.12-3.4v0L145.15,29.63s0,0,0,0l-5.76,3.43S139.35,33.06,139.35,33.07Z"/><path class="cls-2" d="M173.22,149.1,173,149l-.05-.12L139.06,33l.18-.11,5.86-3.49.23.08,0,.11,34.23,116-.17.12ZM139.63,33.17l33.7,115.31,5.71-3.17L145,30Z"/><path class="cls-6" d="M135.35,30.68l4,2.37h0l5.77-3.43a0,0,0,0,0,0,0l-4-2.37h0l-5.77,3.43A0,0,0,0,0,135.35,30.68Z"/><path class="cls-2" d="M139.34,33.34l-.14-.09-4.09-2.43v-.29l.12-.09,5.89-3.5.13.06,4.12,2.45v.3l-.13.08Zm-3.53-2.68,3.54,2.11,5.31-3.16-3.53-2.11Z"/><path class="cls-5" d="M135.37,30.69l4,2.36h0L173.17,148.8s0,0,0,0l-4-2.36h0L135.34,30.7S135.35,30.68,135.37,30.69Z"/><path class="cls-2" d="M173.18,149.12,173,149,169,146.61l-33.89-116,.26-.23.17.09,4,2.4,0,.08,33.88,115.93Zm-3.81-2.83,3.4,2L139.14,33.22l-3.4-2Z"/><path class="cls-6" d="M212.87,91.22l-36.25,21a.06.06,0,0,1-.06,0l-7.61-4.4a.06.06,0,0,1,0-.1l36.25-21a0,0,0,0,1,.05,0l7.62,4.4A.06.06,0,0,1,212.87,91.22Z"/><path class="cls-2" d="M176.62,112.52l-.18-.07L168.7,108l0-.19a.3.3,0,0,1,.15-.26L205.2,86.44l.18.07L213.12,91l0,.19a.3.3,0,0,1-.15.26h0Zm-7.27-4.73,7.24,4.18,35.88-20.8L205.23,87Z"/><path class="cls-7" d="M168.86,107.89v2a.05.05,0,0,0,0,0l7.62,4.32a.05.05,0,0,0,.08-.05v-1.92a.05.05,0,0,0,0-.05l-7.61-4.4A.06.06,0,0,0,168.86,107.89Z"/><path class="cls-2" d="M176.54,114.51a.24.24,0,0,1-.15,0l-7.75-4.39,0-.19v-2.14l.28-.19.18.07,7.74,4.47,0,.19v2.06l-.15.12A.28.28,0,0,1,176.54,114.51Zm-7.44-4.73,7.25,4.11V112.4l-7.25-4.19Z"/><path class="cls-4" d="M176.62,112.24l36.25-21a.06.06,0,0,1,.09,0v1.87a.05.05,0,0,1,0,0l-36.25,21.07a.06.06,0,0,1-.09-.05v-1.92A.05.05,0,0,1,176.62,112.24Z"/><path class="cls-2" d="M176.68,114.54l-.18-.07a.3.3,0,0,1-.15-.26v-2.06l.15-.12,36.37-21.09.18.07a.29.29,0,0,1,.16.26v2l-.15.12Zm.16-2.14v1.49L212.72,93V91.59Z"/><path class="cls-6" d="M212.84,89l0,.13-36.25,21a.06.06,0,0,1-.06,0l-1.27-.75v-.12l36.24-21a.06.06,0,0,1,.06,0Z"/><path class="cls-2" d="M176.63,110.47l-.18-.07-1.39-.82v-.4l.13-.07L211.54,88l.19.08,1.31.77.13.41-.17.1Zm-.94-1.09.91.54,35.88-20.81-.91-.54Z"/><path class="cls-7" d="M175.3,109.44l-.1,0v2a.05.05,0,0,0,0,0l1.37.73v-2a.05.05,0,0,0,0,0Z"/><path class="cls-2" d="M176.84,112.66l-1.85-1,0-.19v-2.16l.36-.16,1.49.89,0,.19Zm-1.39-1.3.9.49v-1.51l-.9-.53Z"/><path class="cls-4" d="M176.63,110.19l36.25-21s.08,0,.08,0v1.87a.08.08,0,0,1,0,0l-36.26,21.07a.06.06,0,0,1-.08,0v-1.92A.05.05,0,0,1,176.63,110.19Z"/><path class="cls-2" d="M176.69,112.49l-.19-.07a.32.32,0,0,1-.15-.26V110.1l.15-.12,36.38-21.1.18.07a.33.33,0,0,1,.15.27v2l-.15.13Zm.15-2.14v1.48L212.72,91V89.54Z"/><polygon class="cls-8" points="163.19 82.21 187.4 68.46 179.23 39.7 176.57 59.25 171.7 56.37 168.84 74.26 164.85 72.86 163.19 82.21"/><polygon class="cls-9" points="166.39 83.73 190.6 69.98 182.43 41.22 179.77 60.77 174.9 57.89 172.04 75.78 168.05 74.38 166.39 83.73"/><path class="cls-2" d="M162.88,82.54l1.79-10.15,4,1.4,2.87-18,4.87,2.88,2.76-20.34,8.55,30.07-.17.09Zm2.18-9.5-1.52,8.56,23.59-13.4-7.8-27.45L176.78,59.5l-4.88-2.88-2.85,17.82Z"/><path class="cls-6" d="M107,111.89l17.57-10.1a.15.15,0,0,1,.16,0l17.56,10.34a.16.16,0,0,1,0,.28l-17.56,10.1a.15.15,0,0,1-.16,0L107,112.17A.17.17,0,0,1,107,111.89Z"/><path class="cls-2" d="M124.68,122.78a.42.42,0,0,1-.21-.06l-17.56-10.34a.41.41,0,0,1,0-.7l17.57-10.1a.38.38,0,0,1,.4,0l17.57,10.34a.43.43,0,0,1,.2.35.4.4,0,0,1-.2.35l-17.57,10.1A.36.36,0,0,1,124.68,122.78ZM107.28,112l17.4,10.25,17.4-10L124.68,102Z"/><polygon class="cls-10" points="106.79 115.92 124.68 105.64 142.56 116.17 124.68 126.45 106.79 115.92"/><path class="cls-4" d="M124.68,139.69v-17a.16.16,0,0,1,.08-.14l17.56-10.1a.16.16,0,0,1,.24.14v17a.16.16,0,0,1-.08.14l-17.56,10.1A.16.16,0,0,1,124.68,139.69Z"/><path class="cls-2" d="M124.84,140.1a.42.42,0,0,1-.21-.06.4.4,0,0,1-.2-.35v-17a.4.4,0,0,1,.21-.35l17.56-10.1a.41.41,0,0,1,.4,0,.39.39,0,0,1,.21.35v17a.39.39,0,0,1-.21.35L125,140.05A.46.46,0,0,1,124.84,140.1Zm.08-17.4v16.85l17.4-10V112.7Z"/><path class="cls-11" d="M106.79,112.31v17a.16.16,0,0,0,.08.14l17.57,10.34a.16.16,0,0,0,.24-.14v-17a.16.16,0,0,0-.08-.14L107,112.17A.17.17,0,0,0,106.79,112.31Z"/><path class="cls-2" d="M124.52,140.1a.42.42,0,0,1-.21-.06L106.75,129.7a.42.42,0,0,1-.2-.35v-17a.4.4,0,0,1,.2-.35.43.43,0,0,1,.41,0l17.56,10.34a.39.39,0,0,1,.2.35v17a.4.4,0,0,1-.2.35A.36.36,0,0,1,124.52,140.1ZM107,129.3l17.39,10.24V122.7L107,112.46Z"/><path class="cls-12" d="M81,106.58l17.57-10.1a.15.15,0,0,1,.16,0l17.56,10.35a.15.15,0,0,1,0,.27L98.69,117.21a.22.22,0,0,1-.16,0L81,106.86A.16.16,0,0,1,81,106.58Z"/><path class="cls-2" d="M98.61,117.47a.5.5,0,0,1-.21,0L80.84,107.07a.38.38,0,0,1-.2-.35.41.41,0,0,1,.2-.35h0L98.4,96.27a.43.43,0,0,1,.41,0l17.57,10.35a.4.4,0,0,1,.2.35.42.42,0,0,1-.21.35l-17.56,10.1A.46.46,0,0,1,98.61,117.47Zm-17.4-10.75L98.61,117,116,107,98.61,96.72Z"/><polygon class="cls-13" points="80.72 110.46 98.61 100.17 116.49 110.7 98.61 120.99 80.72 110.46"/><path class="cls-14" d="M98.61,154.67V117.35a.16.16,0,0,1,.08-.14l17.56-10.11a.16.16,0,0,1,.24.14v37.33a.17.17,0,0,1-.08.14l-17.56,10.1A.16.16,0,0,1,98.61,154.67Z"/><path class="cls-2" d="M98.77,155.07a.39.39,0,0,1-.41-.4V117.34a.42.42,0,0,1,.21-.35l17.56-10.1a.41.41,0,0,1,.4,0,.42.42,0,0,1,.21.35v37.33a.4.4,0,0,1-.21.35L99,155A.35.35,0,0,1,98.77,155.07Zm.08-37.68v37.13l17.4-10V107.39Z"/><path class="cls-15" d="M80.72,107v37.32a.16.16,0,0,0,.08.14L98.37,154.8a.16.16,0,0,0,.24-.13V117.34a.14.14,0,0,0-.08-.13L81,106.86A.16.16,0,0,0,80.72,107Z"/><path class="cls-2" d="M98.45,155.07a.39.39,0,0,1-.21-.06L80.68,144.67a.4.4,0,0,1-.2-.35V107a.42.42,0,0,1,.2-.35.43.43,0,0,1,.41,0L98.65,117a.38.38,0,0,1,.2.34v37.33a.43.43,0,0,1-.2.35A.46.46,0,0,1,98.45,155.07ZM81,144.27l17.39,10.25V117.39L81,107.15Z"/><path class="cls-6" d="M54.14,28.12,71.7,18a.15.15,0,0,1,.16,0L89.43,28.36a.17.17,0,0,1,0,.28L71.86,38.74a.15.15,0,0,1-.16,0L54.13,28.4A.16.16,0,0,1,54.14,28.12Z"/><path class="cls-2" d="M71.78,39a.36.36,0,0,1-.2-.06L54,28.61a.39.39,0,0,1-.2-.35.4.4,0,0,1,.2-.35l17.57-10.1a.43.43,0,0,1,.41,0L89.55,28.15a.41.41,0,0,1,0,.7L72,39A.46.46,0,0,1,71.78,39ZM54.38,28.26l17.4,10.25,17.4-10L71.78,18.26Z"/><polygon class="cls-10" points="53.9 32.08 71.78 21.79 89.67 32.32 71.78 42.61 53.9 32.08"/><path class="cls-4" d="M71.78,169.72V38.88a.17.17,0,0,1,.08-.14l17.56-10.1a.16.16,0,0,1,.24.14V159.62a.16.16,0,0,1-.08.14L72,169.86A.16.16,0,0,1,71.78,169.72Z"/><path class="cls-2" d="M71.94,170.13a.36.36,0,0,1-.2-.06.38.38,0,0,1-.2-.35V38.88a.39.39,0,0,1,.2-.35L89.3,28.43a.43.43,0,0,1,.41,0,.4.4,0,0,1,.2.35V159.62a.42.42,0,0,1-.2.35l-17.57,10.1A.36.36,0,0,1,71.94,170.13ZM72,38.93V169.58l17.39-10V28.93Z"/><path class="cls-11" d="M53.9,28.54V159.38a.14.14,0,0,0,.08.13l17.56,10.35a.16.16,0,0,0,.24-.14V38.88a.16.16,0,0,0-.08-.14L54.14,28.4A.16.16,0,0,0,53.9,28.54Z"/><path class="cls-2" d="M71.62,170.12a.41.41,0,0,1-.21-.05L53.85,159.73a.43.43,0,0,1-.2-.35V28.54a.39.39,0,0,1,.21-.35.41.41,0,0,1,.4,0L71.83,38.53a.43.43,0,0,1,.2.35V169.72a.4.4,0,0,1-.21.35A.35.35,0,0,1,71.62,170.12ZM54.14,159.33l17.4,10.24V38.93L54.14,28.69Z"/><path class="cls-6" d="M27.31,86.36l17.56-10.1a.17.17,0,0,1,.17,0L62.6,86.6a.16.16,0,0,1,0,.28L45,97a.17.17,0,0,1-.17,0L27.31,86.64A.16.16,0,0,1,27.31,86.36Z"/><path class="cls-2" d="M45,97.25a.39.39,0,0,1-.21-.06L27.18,86.85a.43.43,0,0,1-.2-.35.41.41,0,0,1,.21-.35h0l17.56-10.1a.38.38,0,0,1,.41,0L62.73,86.39a.4.4,0,0,1,.19.35.38.38,0,0,1-.2.35L45.16,97.19A.36.36,0,0,1,45,97.25ZM27.56,86.5,45,96.74l17.39-10L45,76.49Z"/><polygon class="cls-10" points="27.07 90.06 44.95 79.77 62.84 90.31 44.95 100.59 27.07 90.06"/><path class="cls-4" d="M45,184.56V97.12A.17.17,0,0,1,45,97L62.6,86.88a.16.16,0,0,1,.24.14v87.44a.16.16,0,0,1-.08.14L45.2,184.7A.16.16,0,0,1,45,184.56Z"/><path class="cls-2" d="M45.11,185a.42.42,0,0,1-.4-.41V97.12a.42.42,0,0,1,.2-.35l17.57-10.1a.41.41,0,0,1,.4,0,.38.38,0,0,1,.2.35v87.44a.38.38,0,0,1-.2.35l-17.56,10.1A.42.42,0,0,1,45.11,185Zm.09-87.8v87.24l17.39-10V87.16Z"/><path class="cls-11" d="M27.07,86.78v87.43a.16.16,0,0,0,.08.14L44.71,184.7a.17.17,0,0,0,.25-.14V97.12a.17.17,0,0,0-.07-.14L27.31,86.64A.16.16,0,0,0,27.07,86.78Z"/><path class="cls-2" d="M44.79,185a.46.46,0,0,1-.2-.05L27,174.56a.38.38,0,0,1-.2-.34V86.78a.41.41,0,0,1,.61-.35L45,96.77a.42.42,0,0,1,.2.35v87.44a.42.42,0,0,1-.2.35A.54.54,0,0,1,44.79,185ZM27.32,174.17l17.39,10.24V97.17L27.32,86.93Z"/><path class="cls-6" d="M.48,159.78l17.57-10.1a.15.15,0,0,1,.16,0L35.78,160a.16.16,0,0,1,0,.28L18.21,170.4a.15.15,0,0,1-.16,0L.48,160.06A.17.17,0,0,1,.48,159.78Z"/><path class="cls-2" d="M18.13,170.67a.36.36,0,0,1-.2-.06L.36,160.27a.41.41,0,0,1,0-.7l17.57-10.1a.38.38,0,0,1,.4,0L35.9,159.81a.43.43,0,0,1,.2.35.39.39,0,0,1-.21.35L18.33,170.62A.46.46,0,0,1,18.13,170.67ZM.73,159.92l17.4,10.25,17.4-10-17.4-10.24Z"/><polygon class="cls-10" points="0.24 163.5 18.13 153.22 36.01 163.75 18.13 174.04 0.24 163.5"/><path class="cls-4" d="M18.13,199.43V170.54a.17.17,0,0,1,.08-.14l17.56-10.1a.16.16,0,0,1,.24.14v28.89a.14.14,0,0,1-.08.13L18.37,199.57A.16.16,0,0,1,18.13,199.43Z"/><path class="cls-2" d="M18.29,199.83a.46.46,0,0,1-.2-.05.4.4,0,0,1-.21-.35V170.54a.4.4,0,0,1,.21-.35l17.56-10.1a.43.43,0,0,1,.41,0,.4.4,0,0,1,.2.35v28.89a.4.4,0,0,1-.21.35l-17.56,10.1A.46.46,0,0,1,18.29,199.83Zm.08-29.24v28.69l17.4-10V160.59Z"/><path class="cls-11" d="M.24,160.2v28.88a.16.16,0,0,0,.08.14l17.57,10.34a.16.16,0,0,0,.24-.14V170.54a.16.16,0,0,0-.08-.14L.49,160.06A.17.17,0,0,0,.24,160.2Z"/><path class="cls-2" d="M18,199.83a.42.42,0,0,1-.21-.06L.2,189.43a.42.42,0,0,1-.2-.35V160.2a.41.41,0,0,1,.61-.35l17.56,10.34a.41.41,0,0,1,.2.35v28.88a.41.41,0,0,1-.2.36A.46.46,0,0,1,18,199.83ZM.49,189l17.39,10.25V170.59L.49,160.35Z"/><path class="cls-4" d="M135.85,237.11l-17.26-58.46c-3.52-11.88-11.32-21.91-21.41-27.5l-6.9-3.82L68.62,199A1.38,1.38,0,0,0,71.16,200l15.27-36.38,30.13,17.88,16.65,56.37a1.37,1.37,0,0,0,1.71.93h0A1.37,1.37,0,0,0,135.85,237.11ZM91.64,151.24l4.2,2.33c8.94,5,16,13.64,19.51,24L87.51,161.07Z"/><path class="cls-2" d="M134.53,239.25a1.74,1.74,0,0,1-1.68-1.26l-16.61-56.22L86.61,164.18l-15.1,36a1.76,1.76,0,0,1-3.24-1.36l21.83-52,7.26,4c10.18,5.64,18,15.75,21.58,27.72L136.21,237a1.75,1.75,0,0,1-1.18,2.18A1.73,1.73,0,0,1,134.53,239.25ZM86.26,163.09l30.61,18.19,0,.14,16.66,56.36a1,1,0,0,0,1.24.68,1,1,0,0,0,.69-1.25l-17.27-58.45C114.74,167,107,157,97,151.48l-6.53-3.62L69,199.1a1,1,0,0,0,0,.77,1,1,0,0,0,.54.55,1,1,0,0,0,1.32-.54ZM116,178.44,87,161.22l4.41-10.51L96,153.24c8.94,5,16.11,13.79,19.67,24.24ZM88,160.91l26.67,15.84a43,43,0,0,0-19-22.85l-3.84-2.13Z"/><path class="cls-4" d="M225.54,122.85,170.7,91.19a3.2,3.2,0,0,0-2.88-.12L80.35,141.59l-2.51-.94v2.86s0,0,0,.06h0a1.24,1.24,0,0,0,.69.85l50.32,29.05a3.65,3.65,0,0,0,3.63,0l20.86-11.9a5.47,5.47,0,0,1,3.09-.69l10,.75a5.74,5.74,0,0,0,3.32-.76l59.58-34.45a.85.85,0,0,0,.49-.72h0v-3.06Z"/><path class="cls-2" d="M130.68,174.2a3.85,3.85,0,0,1-2-.52L78.41,144.63a1.48,1.48,0,0,1-.81-1l0-.05V140.3l2.74,1,87.36-50.46a3.46,3.46,0,0,1,3.14.12L225.6,122.6l4.51-.21V126l-.05,0a1.17,1.17,0,0,1-.57.64l-59.57,34.45a6,6,0,0,1-3.47.79l-10-.75a5.1,5.1,0,0,0-3,.67L132.6,173.69A3.86,3.86,0,0,1,130.68,174.2ZM78.08,141v2.51a1,1,0,0,0,.58.7l50.31,29a3.44,3.44,0,0,0,3.39,0l20.86-11.9a5.62,5.62,0,0,1,3.23-.73l10,.75a5.45,5.45,0,0,0,3.19-.72l59.58-34.45a.63.63,0,0,0,.37-.51v-.4h0V122.9l-4.14.2-.06,0L170.58,91.4a3,3,0,0,0-2.64-.12L80.37,141.86Z"/><path class="cls-6" d="M229.16,121.72,170.81,88a3.2,3.2,0,0,0-2.88-.12L78.44,139.61c-.74.42-.65,1.17.2,1.66l50.12,28.93a3.62,3.62,0,0,0,3.63,0l21-11.94a5.4,5.4,0,0,1,3.09-.7l10.39.78a5.87,5.87,0,0,0,3.33-.76l59.21-34.2C230.1,123,230,122.22,229.16,121.72Z"/><path class="cls-2" d="M130.58,170.93a3.93,3.93,0,0,1-1.94-.51L78.52,141.48a1.43,1.43,0,0,1-.83-1.15,1.11,1.11,0,0,1,.62-.94L167.8,87.71a3.44,3.44,0,0,1,3.13.12l58.35,33.68a1.45,1.45,0,0,1,.83,1.16,1.09,1.09,0,0,1-.62.93l-59.22,34.2a6,6,0,0,1-3.46.79l-10.39-.78a5.18,5.18,0,0,0-3,.67l-21,12A3.86,3.86,0,0,1,130.58,170.93Zm38.6-83.05a2.3,2.3,0,0,0-1.13.25L78.56,139.82a.65.65,0,0,0-.38.51c0,.25.22.52.59.73L128.88,170a3.42,3.42,0,0,0,3.39,0l20.95-11.95a5.68,5.68,0,0,1,3.23-.73l10.39.78a5.47,5.47,0,0,0,3.19-.72l59.21-34.2a.65.65,0,0,0,.38-.51c0-.25-.22-.52-.59-.73L170.69,88.25A3.21,3.21,0,0,0,169.18,87.88Z"/><path class="cls-5" d="M198.8,110.27l-5.86,3.39a3.75,3.75,0,0,1-3.35-.14l-18-10.39c-1-.57-1.1-1.44-.24-1.93l5.87-3.39a3.73,3.73,0,0,1,3.34.14l18,10.39C199.55,108.91,199.66,109.78,198.8,110.27Z"/><path class="cls-2" d="M191.48,114.24a4.06,4.06,0,0,1-2-.51l-18-10.39a1.6,1.6,0,0,1-.94-1.3,1.23,1.23,0,0,1,.7-1.05l5.86-3.39a3.94,3.94,0,0,1,3.59.14l18,10.39a1.6,1.6,0,0,1,.94,1.3,1.21,1.21,0,0,1-.7,1l-5.86,3.39A3.18,3.18,0,0,1,191.48,114.24ZM178.67,97.73a2.68,2.68,0,0,0-1.32.3l-5.87,3.38a.78.78,0,0,0-.45.63c0,.3.25.62.69.88l18,10.39a3.52,3.52,0,0,0,3.09.14l5.87-3.39a.78.78,0,0,0,.45-.63c0-.3-.25-.62-.69-.88l-18-10.39A3.78,3.78,0,0,0,178.67,97.73Z"/><path class="cls-5" d="M174.32,96.13l-5.87,3.39a3.7,3.7,0,0,1-3.34-.14l-3.56-2c-1-.58-1.1-1.44-.24-1.93L167.17,92a3.7,3.7,0,0,1,3.34.14l3.57,2.06C175.07,94.78,175.17,95.64,174.32,96.13Z"/><path class="cls-2" d="M167,100.1a4.06,4.06,0,0,1-2-.51l-3.57-2a1.63,1.63,0,0,1-.94-1.31,1.24,1.24,0,0,1,.7-1l5.87-3.38a3.94,3.94,0,0,1,3.59.14l3.56,2a1.61,1.61,0,0,1,.94,1.31,1.24,1.24,0,0,1-.7,1l-5.87,3.38A3.17,3.17,0,0,1,167,100.1Zm1.62-8.18a2.75,2.75,0,0,0-1.33.3l-5.86,3.39a.77.77,0,0,0-.46.62c0,.31.26.63.7.88l3.56,2.06a3.51,3.51,0,0,0,3.1.14l5.87-3.39a.78.78,0,0,0,.45-.62c0-.31-.25-.63-.7-.88l-3.56-2.06A3.63,3.63,0,0,0,168.62,91.92Z"/><path class="cls-4" d="M171.6,103.13l.72.42,4.91-2.83a3.7,3.7,0,0,1,3.34.13l17.27,10,1-.56c.86-.49.75-1.36-.24-1.93L180.57,98a3.73,3.73,0,0,0-3.34-.14l-5.87,3.39C170.5,101.69,170.61,102.56,171.6,103.13Z"/><path class="cls-2" d="M197.84,111.11l-17.39-10a3.48,3.48,0,0,0-3.1-.14l-5,2.9-.84-.49a1.6,1.6,0,0,1-.94-1.3,1.23,1.23,0,0,1,.7-1.05l5.86-3.39a3.94,3.94,0,0,1,3.59.14l18,10.39a1.6,1.6,0,0,1,.94,1.3,1.21,1.21,0,0,1-.7,1Zm-19.16-11a4.16,4.16,0,0,1,2,.5l17.15,9.9.84-.48a.78.78,0,0,0,.45-.63c0-.3-.25-.62-.69-.88l-18-10.39a3.51,3.51,0,0,0-3.1-.13l-5.87,3.38a.78.78,0,0,0-.45.63c0,.3.25.62.69.88h0l.6.34,4.78-2.76A3.29,3.29,0,0,1,178.68,100.14Z"/><path class="cls-4" d="M161.55,97.33l.72.41,4.9-2.83a3.73,3.73,0,0,1,3.34.14l2.84,1.64,1-.56c.85-.49.75-1.35-.24-1.92l-3.57-2.06a3.7,3.7,0,0,0-3.34-.14l-5.86,3.39C160.45,95.89,160.56,96.75,161.55,97.33Z"/><path class="cls-2" d="M162.27,98l-.85-.48a1.63,1.63,0,0,1-.94-1.31,1.24,1.24,0,0,1,.7-1l5.87-3.38a3.94,3.94,0,0,1,3.59.14l3.56,2a1.61,1.61,0,0,1,.94,1.31,1.24,1.24,0,0,1-.7,1l-1.09.62-3-1.71a3.54,3.54,0,0,0-3.1-.14Zm-.6-.91.6.35,4.78-2.76a3.94,3.94,0,0,1,3.59.14l2.71,1.57.85-.49a.78.78,0,0,0,.45-.62,1.14,1.14,0,0,0-.69-.88l-3.57-2.06a3.54,3.54,0,0,0-3.1-.14l-5.86,3.39a.77.77,0,0,0-.46.62c0,.31.26.63.7.88Z"/><path class="cls-2" d="M154.84,161.15l-.47-.15a6.32,6.32,0,0,0,0-3.17l.47-.14A6.62,6.62,0,0,1,154.84,161.15Z"/><path class="cls-2" d="M131,174l-.45-.17a5,5,0,0,0,0-3.09l.45-.17A5.35,5.35,0,0,1,131,174Z"/><path class="cls-15" d="M223.73,82.42a22.17,22.17,0,0,1,2.34-10,22.55,22.55,0,0,1,1.5-2.56,22.29,22.29,0,1,1,20.58,34.7c-1.29,2.81-3.83,6.64-8.48,8.26a1,1,0,0,1-1.23-1.4,13.11,13.11,0,0,0,1-7.73A22.29,22.29,0,0,1,223.73,82.42Z"/><path class="cls-2" d="M237.64,111.73a1.2,1.2,0,0,1-.9-.42,1.25,1.25,0,0,1-.21-1.39,12.8,12.8,0,0,0,1-7.44A22.4,22.4,0,0,1,221.79,81a22.79,22.79,0,0,1,.45-4.52l.48.1a22.46,22.46,0,0,0-.44,4.42,21.93,21.93,0,0,0,15.57,21.07l.14,0,0,.16a13.29,13.29,0,0,1-1.05,7.87.78.78,0,0,0,.13.86.72.72,0,0,0,.79.2,14.74,14.74,0,0,0,8.34-8.13l.06-.12.14,0a22,22,0,1,0-15.86-39.16l-.31-.38a22.53,22.53,0,1,1,16.36,40,15.22,15.22,0,0,1-8.57,8.26A1.41,1.41,0,0,1,237.64,111.73Z"/><path class="cls-2" d="M225.53,69.42l-.41-.27c.56-.82.86-1.25,1-1.46a20.83,20.83,0,0,1,1.45-1.78l.36.32c-.5.56-1,1.15-1.41,1.75C226.37,68.19,226.08,68.61,225.53,69.42Z"/><path class="cls-9" d="M235.87,78.64a8.45,8.45,0,1,1,14.92,5.44.44.44,0,0,1-.09.11l-.07.08-.11.12a11,11,0,0,0-2.05,3.21,3.86,3.86,0,0,1-.25.7s0,0,0,.06h0a4.3,4.3,0,0,1-8-.76,10.94,10.94,0,0,0-1.72-2.89A8.38,8.38,0,0,1,235.87,78.64Z"/><path class="cls-8" d="M237.56,80a8.46,8.46,0,1,1,14.93,5.44.52.52,0,0,1-.1.11.27.27,0,0,1-.07.08l-.11.12a10.84,10.84,0,0,0-2.05,3.22,4.16,4.16,0,0,1-.25.7.17.17,0,0,0,0,0h0a4.3,4.3,0,0,1-8-.75A10.63,10.63,0,0,0,240.13,86,8.42,8.42,0,0,1,237.56,80Z"/><path class="cls-8" d="M242.6,95.77a1.76,1.76,0,1,0,1.71-1.31A1.56,1.56,0,0,0,242.6,95.77Z"/><path class="cls-2" d="M244.31,97.32h0a2.25,2.25,0,0,1-1.36-.43,1.43,1.43,0,0,1-.59-1.12,1.39,1.39,0,0,1,.6-1.12,2.21,2.21,0,0,1,1.35-.44h0a1.6,1.6,0,1,1,0,3.11Zm0-2.62a1.78,1.78,0,0,0-1.06.33,1,1,0,0,0-.4.74h0a.93.93,0,0,0,.4.73,1.72,1.72,0,0,0,1.06.33h0c.8,0,1.46-.47,1.46-1.06s-.66-1.07-1.46-1.07Z"/><path class="cls-9" d="M241.24,94.36c0,1,1.37,1.78,3.07,1.78s3.07-.8,3.07-1.78-1.37-1.78-3.07-1.78S241.24,93.37,241.24,94.36Z"/><path class="cls-2" d="M244.31,96.38h0c-1.86,0-3.32-.89-3.32-2h0c0-1.13,1.47-2,3.32-2a4.66,4.66,0,0,1,2.3.56,1.75,1.75,0,0,1,1,1.47C247.63,95.49,246.17,96.38,244.31,96.38Zm-2.83-2c0,.84,1.3,1.54,2.83,1.54h0c1.53,0,2.83-.7,2.83-1.53a1.31,1.31,0,0,0-.78-1,4.2,4.2,0,0,0-2.05-.49h0C242.78,92.82,241.48,93.52,241.48,94.35Z"/><path class="cls-8" d="M241.24,93.19c0,1,1.37,1.78,3.07,1.78s3.07-.79,3.07-1.78-1.37-1.78-3.07-1.78S241.24,92.21,241.24,93.19Z"/><path class="cls-2" d="M244.31,95.22h0c-1.86,0-3.32-.89-3.32-2h0c0-1.13,1.46-2,3.32-2h0c1.86,0,3.32.89,3.32,2S246.17,95.22,244.31,95.22Zm-2.83-2c0,.83,1.3,1.54,2.83,1.54h0c1.53,0,2.83-.7,2.83-1.53s-1.3-1.54-2.83-1.54h0C242.78,91.66,241.48,92.36,241.48,93.19Z"/><path class="cls-9" d="M241.24,92c0,1,1.37,1.78,3.07,1.78s3.07-.79,3.07-1.77-1.37-1.78-3.07-1.79S241.24,91,241.24,92Z"/><path class="cls-2" d="M244.31,94h0a4.66,4.66,0,0,1-2.3-.56A1.77,1.77,0,0,1,241,92h0c0-1.13,1.46-2,3.32-2h0c1.86,0,3.32.89,3.32,2S246.17,94,244.31,94Zm0-3.56c-1.53,0-2.83.7-2.83,1.53a1.31,1.31,0,0,0,.78,1.05,4.2,4.2,0,0,0,2.05.49h0c1.54,0,2.83-.7,2.83-1.53s-1.29-1.54-2.83-1.54Z"/><path class="cls-8" d="M241.24,90.8c0,1,1.37,1.78,3.07,1.78s3.07-.8,3.08-1.78S246,89,244.31,89,241.24,89.81,241.24,90.8Z"/><path class="cls-2" d="M244.31,92.82h0a4.7,4.7,0,0,1-2.29-.55,1.78,1.78,0,0,1-1-1.47c0-1.14,1.46-2,3.32-2h0a4.63,4.63,0,0,1,2.3.55,1.57,1.57,0,0,1,0,2.94A4.63,4.63,0,0,1,244.31,92.82Zm0-3.56c-1.53,0-2.83.71-2.83,1.54a1.31,1.31,0,0,0,.78,1,4.09,4.09,0,0,0,2.05.49h0a4.2,4.2,0,0,0,2.05-.48,1.31,1.31,0,0,0,.78-1,1.32,1.32,0,0,0-.78-1,4.2,4.2,0,0,0-2.05-.49Z"/><path class="cls-9" d="M241.25,89c0,1,1.37,1.78,3.07,1.78s3.07-.8,3.07-1.78-1.37-1.78-3.07-1.78S241.25,88,241.25,89Z"/><path class="cls-2" d="M244.32,91h0a4.66,4.66,0,0,1-2.3-.55A1.76,1.76,0,0,1,241,89c0-1.14,1.46-2,3.32-2h0a4.63,4.63,0,0,1,2.3.55,1.57,1.57,0,0,1,0,2.94A4.66,4.66,0,0,1,244.32,91Zm0-3.55c-1.53,0-2.83.7-2.83,1.53a1.31,1.31,0,0,0,.78,1,4.09,4.09,0,0,0,2,.49h0a4.2,4.2,0,0,0,2.05-.48,1.31,1.31,0,0,0,.78-1,1.33,1.33,0,0,0-.78-1,4.2,4.2,0,0,0-2.05-.48Z"/><path class="cls-9" d="M243.75,83.8l.57-.36c-2-3.21-2.29-4.19-2.3-4.47l.31.12a4.7,4.7,0,0,0,2,.47,4.65,4.65,0,0,0,1.94-.51l.33-.14c.07.21.08,1.1-2.13,4.48l.57.37c2.58-3.94,2.47-4.94,2-5.39-.3-.29-.67-.12-1.07.06a3.9,3.9,0,0,1-1.66.44,4,4,0,0,1-1.73-.4c-.39-.17-.76-.33-1-.07S241,79.44,243.75,83.8Z"/><path class="cls-9" d="M244.31,89.8h0a.85.85,0,0,0,.91-.78V84a.85.85,0,0,0-.9-.79h0a.86.86,0,0,0-.91.79v5A.85.85,0,0,0,244.31,89.8Z"/><path class="cls-2" d="M244.31,90.05h0a1.19,1.19,0,0,1-.85-.35,1,1,0,0,1-.3-.69V84a1.16,1.16,0,0,1,2.3,0v5a1,1,0,0,1-.35.74A1.24,1.24,0,0,1,244.31,90.05Zm0-6.56a.6.6,0,0,0-.66.54v5a.49.49,0,0,0,.15.34.71.71,0,0,0,.51.2h0a.7.7,0,0,0,.48-.17A.49.49,0,0,0,245,89V84A.61.61,0,0,0,244.32,83.49Z"/><path class="cls-2" d="M244.31,91h0a4.56,4.56,0,0,1-4.39-3.37,10.43,10.43,0,0,0-1.67-2.8,8.7,8.7,0,0,1,6.07-14.93h0A8.7,8.7,0,0,1,251,84.24l-.1.12-.18.2a10.64,10.64,0,0,0-2,3.14,4.76,4.76,0,0,1-.26.71l-.06.12A4.52,4.52,0,0,1,244.31,91Zm0-20.61a8.21,8.21,0,0,0-8.21,8.21h0a8.18,8.18,0,0,0,2.5,5.9,11.05,11.05,0,0,1,1.78,3,4.07,4.07,0,0,0,3.92,3h0a4,4,0,0,0,3.66-2.3l.06-.11a4.68,4.68,0,0,0,.2-.6,11.56,11.56,0,0,1,2.11-3.32l.18-.2.08-.09a8.21,8.21,0,0,0-6.27-13.5Z"/><path class="cls-2" d="M255.41,103.07l-.18-.46a22,22,0,0,0,11.15-11.38l.45.18A22.54,22.54,0,0,1,255.41,103.07Z"/><path class="cls-2" d="M267.47,89.72l-.46-.17a21.91,21.91,0,0,0,.8-2.66l.48.1A22.53,22.53,0,0,1,267.47,89.72Z"/><path class="cls-2" d="M238.07,77.36l-.48-.1a8.6,8.6,0,0,1,3.3-4.61l.3.38A8.36,8.36,0,0,0,238.07,77.36Z"/><path class="cls-16" d="M125.19,114.15l1.57,7.89c0,1.95,2.85,3.54,6.37,3.54S139.5,124,139.5,122l1.58-7.89Z"/><path class="cls-2" d="M133.13,126c-3.78,0-6.74-1.72-6.74-3.91l-1.66-8.27h16.8l-1.66,8.34C139.88,124.23,136.92,126,133.13,126Zm-7.48-11.43,1.48,7.45c0,1.78,2.75,3.23,6,3.23s6-1.45,6-3.16l1.49-7.52Z"/><path class="cls-9" d="M142.06,107.57l-4,0h-.09a14.55,14.55,0,0,0-4.8-.77,14.28,14.28,0,0,0-5.37,1l-.1,0-3.47.07a.31.31,0,0,0-.3.33l.22,3.59c0,2.77,4,5,9,5s9-2.24,9-5l.21-3.88A.3.3,0,0,0,142.06,107.57Z"/><path class="cls-2" d="M133.13,117.15c-5.26,0-9.39-2.36-9.39-5.38l-.22-3.57a.65.65,0,0,1,.17-.5.73.73,0,0,1,.49-.23l3.47-.07a14.46,14.46,0,0,1,5.48-1,15,15,0,0,1,4.92.79l4,0a.71.71,0,0,1,.5.21.73.73,0,0,1,.18.51l-.21,3.87C142.53,114.79,138.4,117.15,133.13,117.15Zm-8.86-8.93.22,3.53c0,2.58,3.88,4.65,8.64,4.65s8.65-2.07,8.65-4.63L142,108l-4.19-.06a14.33,14.33,0,0,0-4.67-.75,13.79,13.79,0,0,0-5.22,1,.69.69,0,0,1-.24.05Z"/><path class="cls-9" d="M133.13,106.77c3.73,0,6.93,1.25,8.31,3a3.19,3.19,0,0,0,.71-2c0-2.77-4-5-9-5s-9,2.24-9,5a3.2,3.2,0,0,0,.72,2C126.2,108,129.4,106.77,133.13,106.77Z"/><path class="cls-8" d="M133.13,102.71c-5.11,0-9.26,2.31-9.26,5.15S128,113,133.13,113s9.27-2.31,9.27-5.14S138.25,102.71,133.13,102.71Zm0,9.17c-4,0-7.24-1.8-7.24-4s3.24-4,7.24-4,7.25,1.8,7.25,4S137.14,111.88,133.13,111.88Z"/><path class="cls-2" d="M133.13,113.24c-5.24,0-9.5-2.42-9.5-5.38s4.26-5.39,9.5-5.39,9.51,2.42,9.51,5.39S138.38,113.24,133.13,113.24Zm0-10.28c-5,0-9,2.19-9,4.9s4,4.89,9,4.89,9-2.19,9-4.89S138.11,103,133.13,103Zm0,9.16c-4.13,0-7.49-1.91-7.49-4.26s3.36-4.27,7.49-4.27,7.49,1.91,7.49,4.27S137.26,112.12,133.13,112.12Zm0-8c-3.86,0-7,1.69-7,3.78s3.14,3.77,7,3.77,7-1.69,7-3.77S137,104.08,133.13,104.08Z"/><path class="cls-8" d="M133.13,106.3c-2.88,0-6,.69-7.24,1.52h0c0,2.23,3.09,4.06,7.24,4.06s7.25-1.83,7.25-4.06a2.07,2.07,0,0,0,0-.35h0C139.62,106.93,136.64,106.25,133.13,106.3Z"/><path class="cls-2" d="M133.13,112.12c-3.94,0-7.08-1.66-7.45-3.86l0,0v-.46h.24l-.13-.2c1.29-.86,4.39-1.52,7.38-1.56h0c3.37-.06,6.52.58,7.36,1.21l.08.06,0,.1a2.56,2.56,0,0,1,0,.39C140.62,110.23,137.33,112.12,133.13,112.12Zm-7-4.16c.13,2.07,3.16,3.67,7,3.67s7-1.71,7-3.81a1.49,1.49,0,0,0,0-.21c-.79-.49-3.61-1.12-7-1.06h0C130.36,106.59,127.4,107.19,126.13,108Z"/><path class="cls-2" d="M136.51,111.13c-1.07,0-1.95-.48-1.95-1.07s.88-1.07,1.95-1.07,1.94.48,1.94,1.07S137.58,111.13,136.51,111.13Zm0-1.65c-1,0-1.46.4-1.46.58s.5.58,1.46.58,1.45-.41,1.45-.58S137.47,109.48,136.51,109.48Z"/><path class="cls-2" d="M129.89,110.12c-1.43,0-2.59-.62-2.59-1.38s1.16-1.39,2.59-1.39,2.59.62,2.59,1.39S131.32,110.12,129.89,110.12Zm0-2.28c-1.26,0-2.1.54-2.1.9s.84.89,2.1.89,2.1-.54,2.1-.89S131.15,107.84,129.89,107.84Z"/><path class="cls-16" d="M133.13,109.82h0a1.45,1.45,0,0,1-1.45-1.46V96.42A1.46,1.46,0,0,1,133.13,95h0a1.46,1.46,0,0,1,1.46,1.46v11.94A1.46,1.46,0,0,1,133.13,109.82Z"/><path class="cls-2" d="M133.13,110.07a1.71,1.71,0,0,1-1.7-1.71V96.42a1.71,1.71,0,0,1,3.41,0v11.94A1.72,1.72,0,0,1,133.13,110.07Zm0-14.85a1.2,1.2,0,0,0-1.2,1.2v11.94a1.21,1.21,0,1,0,2.41,0V96.42A1.21,1.21,0,0,0,133.13,95.22Z"/><path class="cls-16" d="M124.1,70.69a.3.3,0,0,1,.26-.2,11.38,11.38,0,0,1,10.36,4.76c4.16,5.43,1.58,9.67,1.14,10.32a.31.31,0,0,1-.16.12c-.75.26-5.51,1.66-9.68-3.76A11.37,11.37,0,0,1,124.1,70.69Z"/><path class="cls-2" d="M133.39,86.3c-2,0-4.89-.75-7.56-4.22a11.63,11.63,0,0,1-2-11.48.54.54,0,0,1,.46-.35,11.61,11.61,0,0,1,10.58,4.85c4.23,5.51,1.7,9.8,1.15,10.61a.58.58,0,0,1-.28.21A7.36,7.36,0,0,1,133.39,86.3Zm-7.95-15.63a9.68,9.68,0,0,0-1,.06.12.12,0,0,0-.07,0h0a11.15,11.15,0,0,0,1.9,11c4,5.24,8.53,4,9.4,3.68.55-.79,2.93-4.82-1.09-10.06A11.34,11.34,0,0,0,125.44,70.67Z"/><path class="cls-2" d="M135.47,85.79a31.43,31.43,0,0,0-7.74-11.25l.31-.37a31.81,31.81,0,0,1,7.88,11.43Z"/><path class="cls-2" d="M130.5,78.87a10,10,0,0,1-5.72-2l.28-.4c3.66,2.57,6.47,1.85,6.5,1.84l.13.48A5.12,5.12,0,0,1,130.5,78.87Z"/><path class="cls-2" d="M134.81,83.47l-.4-.28a5.17,5.17,0,0,0,.15-5.32l.41-.26A5.68,5.68,0,0,1,134.81,83.47Z"/><path class="cls-8" d="M142.67,71.77a.33.33,0,0,1,.3.14,11.37,11.37,0,0,1,.57,11.39c-2.88,6.21-7.84,5.88-8.62,5.78a.25.25,0,0,1-.18-.08c-.58-.54-4-4.12-1.14-10.32A11.41,11.41,0,0,1,142.67,71.77Z"/><path class="cls-2" d="M135.61,89.37c-.32,0-.57,0-.72,0a.63.63,0,0,1-.32-.15c-.71-.67-4.12-4.31-1.19-10.6a11.64,11.64,0,0,1,9.27-7h0a.55.55,0,0,1,.52.24,11.66,11.66,0,0,1,.59,11.64C141.29,88.73,137.35,89.37,135.61,89.37ZM142.69,72a11.15,11.15,0,0,0-8.87,6.77c-2.78,6,.41,9.4,1.08,10,1,.13,5.64.37,8.42-5.62a11.16,11.16,0,0,0-.55-11.15.07.07,0,0,0-.08,0Z"/><path class="cls-2" d="M134.92,89.16l-.37-.32a31.56,31.56,0,0,0,6.39-12.06l.47.1A31.74,31.74,0,0,1,134.92,89.16Z"/><path class="cls-2" d="M139,82.23c-.09-.09-2.12-2.34-1.5-7l.48.07c-.58,4.44,1.36,6.59,1.38,6.61Z"/><path class="cls-2" d="M137,87.23a5.85,5.85,0,0,1-.71,0l.07-.49a5.16,5.16,0,0,0,4.79-2.33l.41.25A5.78,5.78,0,0,1,137,87.23Z"/><path class="cls-8" d="M114.93,81.75a.36.36,0,0,0-.19.32,12.52,12.52,0,0,0,6.68,10.63c6.51,3.78,10.77.36,11.42-.22a.31.31,0,0,0,.11-.19c.18-.85,1-6.25-5.48-10A12.52,12.52,0,0,0,114.93,81.75Z"/><path class="cls-2" d="M127.33,94.71a12,12,0,0,1-6-1.8,12.78,12.78,0,0,1-6.79-10.84.59.59,0,0,1,.31-.53h0a12.8,12.8,0,0,1,12.78.51c6.6,3.83,5.82,9.24,5.6,10.29a.59.59,0,0,1-.19.32A8.61,8.61,0,0,1,127.33,94.71Zm-6.7-14.14a11.47,11.47,0,0,0-5.58,1.4h0a.1.1,0,0,0-.06.1,12.3,12.3,0,0,0,6.55,10.42c6.3,3.65,10.38.48,11.14-.19a.09.09,0,0,0,0-.06c.21-1,.94-6.11-5.36-9.77A13.23,13.23,0,0,0,120.63,80.57Z"/><path class="cls-2" d="M132.89,92.52a34.93,34.93,0,0,1-13.59-7l.33-.36A34.57,34.57,0,0,0,133,92.05Z"/><path class="cls-2" d="M124.78,88.89l-.49-.06s.39-3.22-2.94-6.86l.36-.33C125.21,85.46,124.8,88.76,124.78,88.89Z"/><path class="cls-16" d="M151.79,81.37a.28.28,0,0,0-.19-.25A10.93,10.93,0,0,0,140.81,83c-5.2,4-3.86,8.57-3.61,9.29a.44.44,0,0,0,.12.15c.63.43,4.7,2.9,9.9-1.09A10.89,10.89,0,0,0,151.79,81.37Z"/><path class="cls-2" d="M141.31,93.82a7.51,7.51,0,0,1-4.13-1.21.57.57,0,0,1-.21-.27c-.31-.89-1.6-5.5,3.69-9.56a11.19,11.19,0,0,1,11-1.89.56.56,0,0,1,.35.45,11.18,11.18,0,0,1-4.67,10.17A9.87,9.87,0,0,1,141.31,93.82Zm6.59-13.14A11.22,11.22,0,0,0,141,83.17c-5,3.85-3.82,8.18-3.52,9,.75.53,4.62,2.81,9.63-1a10.66,10.66,0,0,0,4.48-9.72h0s0,0,0-.05A9.75,9.75,0,0,0,147.9,80.68Z"/><path class="cls-2" d="M137.52,92.56l-.39-.3a30.5,30.5,0,0,1,10.14-8.65l.2.44A30.29,30.29,0,0,0,137.52,92.56Z"/><path class="cls-2" d="M145.85,87.63a6.53,6.53,0,0,1-3.1-.66l.25-.42s2.45,1.37,6.47-.1l.17.46A11.07,11.07,0,0,1,145.85,87.63Z"/><path class="cls-2" d="M138.69,90.58a5.44,5.44,0,0,1,1.3-5.49l.34.35a4.86,4.86,0,0,0-1.19,5Z"/><path class="cls-9" d="M120.16,91.18a.31.31,0,0,0-.24.2A10.9,10.9,0,0,0,122,102.12c4.12,5.1,8.66,3.65,9.37,3.38a.3.3,0,0,0,.15-.12c.41-.64,2.79-4.77-1.33-9.87A10.91,10.91,0,0,0,120.16,91.18Z"/><path class="cls-2" d="M129,106.15c-1.92,0-4.62-.71-7.18-3.88a11.18,11.18,0,0,1-2.15-11,.54.54,0,0,1,.44-.35h0a11.19,11.19,0,0,1,10.28,4.41c4.19,5.19,1.86,9.38,1.35,10.16a.58.58,0,0,1-.27.22A7.16,7.16,0,0,1,129,106.15ZM120.2,91.42s0,0-.06,0A10.7,10.7,0,0,0,122.22,102c4,4.93,8.27,3.62,9.09,3.31.51-.76,2.7-4.68-1.28-9.61a10.69,10.69,0,0,0-9.83-4.24Z"/><path class="cls-2" d="M131.41,105.58a30.8,30.8,0,0,1-8.9-9.93l.44-.22a30.2,30.2,0,0,0,8.75,9.75Z"/><path class="cls-2" d="M126,100.08l-.43-.23s1.32-2.49-.25-6.48l.45-.18C127.41,97.41,126,100,126,100.08Z"/><path class="cls-2" d="M127.9,104.41a5.86,5.86,0,0,1-3.73-1.52l.34-.34a4.9,4.9,0,0,0,5,1.06l.18.45A4.73,4.73,0,0,1,127.9,104.41Z"/><path class="cls-8" d="M147.77,90.57a.31.31,0,0,0-.26-.23,12,12,0,0,0-11.16,4.34c-4.71,5.43-2.27,10-1.84,10.75a.32.32,0,0,0,.16.14c.76.32,5.67,2.09,10.37-3.34A12,12,0,0,0,147.77,90.57Z"/><path class="cls-2" d="M137.55,106.35a7.85,7.85,0,0,1-3-.56.53.53,0,0,1-.27-.24c-.53-.87-2.91-5.53,1.86-11a12.22,12.22,0,0,1,11.39-4.42.56.56,0,0,1,.45.39h0a12.21,12.21,0,0,1-2.77,11.9C142.45,105.59,139.62,106.35,137.55,106.35Zm8.17-15.92a12,12,0,0,0-9.19,4.41c-4.55,5.25-2.31,9.64-1.81,10.46.93.41,5.58,2,10.14-3.23a11.71,11.71,0,0,0,2.68-11.42.1.1,0,0,0-.08-.07A8.92,8.92,0,0,0,145.72,90.43Z"/><path class="cls-2" d="M134.89,105.67l-.44-.21a33.61,33.61,0,0,1,9-11.49l.29.4A33,33,0,0,0,134.89,105.67Z"/><path class="cls-2" d="M141,98.74a5.42,5.42,0,0,1-1.68-.22l.16-.46s2.94.94,6.94-1.52l.25.42A10.89,10.89,0,0,1,141,98.74Z"/><path class="cls-2" d="M135.75,103.29c-1.9-3,.17-6.11.19-6.14l.4.28a5.43,5.43,0,0,0-.18,5.6Z"/><path class="cls-16" d="M135.35,82.64a.32.32,0,0,0-.34,0,11.68,11.68,0,0,0-6.81,9.57c-.94,7,3.54,9.45,4.27,9.8a.37.37,0,0,0,.21,0c.79-.15,5.77-1.34,6.71-8.32A11.71,11.71,0,0,0,135.35,82.64Z"/><path class="cls-2" d="M132.62,102.25a.58.58,0,0,1-.26-.06c-.9-.44-5.36-3-4.41-10.06a12,12,0,0,1,7-9.76.58.58,0,0,1,.58.08h0a12,12,0,0,1,4.14,11.26c-1,7.08-5.93,8.35-6.92,8.53Zm2.53-19.44h0a11.51,11.51,0,0,0-6.67,9.38c-.91,6.75,3.29,9.14,4.14,9.55,1-.16,5.66-1.36,6.57-8.11a11.51,11.51,0,0,0-4-10.81Z"/><path class="cls-2" d="M132.43,102a33.07,33.07,0,0,1,1.18-14.25l.46.17a32.48,32.48,0,0,0-1.15,14Z"/><path class="cls-2" d="M132.69,93.73l-.12-.48s2.92-.81,4.87-5l.45.21C135.83,92.87,132.82,93.7,132.69,93.73Z"/><path class="cls-2" d="M132.34,99.55a5.82,5.82,0,0,1-3.15-5.14h.49a5.34,5.34,0,0,0,2.86,4.69Z"/><path class="cls-2" d="M146.12,138.29v-22.5a2.19,2.19,0,0,1,.91-1.72l27-15.52a.58.58,0,0,1,.56,0h0l.67.39-.67,1,0,21.86a2.13,2.13,0,0,1-.9,1.72L147.31,139.5l-.24-.1-.66-.39h0A.79.79,0,0,1,146.12,138.29Z"/><path class="cls-2" d="M147.33,139.78l-.36-.16-.8-.5a1.12,1.12,0,0,1-.3-.83l0-22.5a2.4,2.4,0,0,1,1-1.93l27-15.52a.94.94,0,0,1,.57-.13l0,0,1.11.64-.78,1.11,0,21.78a2.38,2.38,0,0,1-1,1.93Zm-.72-.94.68.39,26.25-16a1.9,1.9,0,0,0,.79-1.51V99.76l.56-.8-.43-.24a.33.33,0,0,0-.33,0l-27,15.52a1.91,1.91,0,0,0-.78,1.5l0,22.5a.64.64,0,0,0,.18.51Z"/><path class="cls-8" d="M147.79,139.59l27-15.52a2.15,2.15,0,0,0,.9-1.72V99.7c0-.66-.4-1-.9-.68l-27,15.52a2.13,2.13,0,0,0-.9,1.72l0,22C146.89,138.91,147.29,139.88,147.79,139.59Z"/><path class="cls-2" d="M147.61,139.89a.6.6,0,0,1-.29-.08,2,2,0,0,1-.67-1.57v-22a2.37,2.37,0,0,1,1-1.93l27-15.52a.8.8,0,0,1,.84,0,1,1,0,0,1,.43.94l0,22.65a2.42,2.42,0,0,1-1,1.94l-27,15.51A.55.55,0,0,1,147.61,139.89Zm27.54-40.74a.48.48,0,0,0-.23.08l-27,15.52a1.91,1.91,0,0,0-.78,1.51v22a1.59,1.59,0,0,0,.42,1.14.09.09,0,0,0,.11,0l27-15.52a1.89,1.89,0,0,0,.78-1.51l0-22.65a.59.59,0,0,0-.19-.52A.2.2,0,0,0,175.15,99.15Z"/><path class="cls-9" d="M148.42,137.25l25.75-14.81a1,1,0,0,0,.4-.76l0-20.68c0-.29-.18-.43-.4-.3l-25.75,14.81a1,1,0,0,0-.4.76L148,137C148,137.24,148.2,137.38,148.42,137.25Z"/><path class="cls-2" d="M148.26,137.54a.43.43,0,0,1-.22-.06.57.57,0,0,1-.26-.53l0-20.68a1.18,1.18,0,0,1,.52-1l25.75-14.81a.48.48,0,0,1,.5,0,.57.57,0,0,1,.26.53v20.68a1.2,1.2,0,0,1-.52,1l-25.76,14.81A.48.48,0,0,1,148.26,137.54Zm26.06-36.65-25.76,14.83a.74.74,0,0,0-.28.55V137a.44.44,0,0,0,0,.12l.13.18-.12-.21,25.75-14.81a.74.74,0,0,0,.28-.55V101C174.34,100.93,174.33,100.89,174.32,100.89Z"/><path class="cls-2" d="M148,139.7l1.46-.12,25.86-14.87a2.15,2.15,0,0,1,1.94.08l17.92,10.37,1-.08v.28h0a.56.56,0,0,1-.33.51l-27,15.48a2.15,2.15,0,0,1-1.94-.08l-18.37-9.92a.77.77,0,0,1-.47-.63h0Z"/><path class="cls-2" d="M167.94,151.79a2.41,2.41,0,0,1-1.22-.31l-18.37-9.92a1.12,1.12,0,0,1-.57-.64h0v-1.43l1.62-.13,25.82-14.85a2.37,2.37,0,0,1,2.18.08l17.85,10.33,1.14-.09v.78h0a.84.84,0,0,1-.42.48l-27,15.49A2,2,0,0,1,167.94,151.79Zm-19.7-11.24v.17c0,.13.13.29.35.42L167,151.06a1.93,1.93,0,0,0,1.7.08l27-15.48c.1-.06.22-.16.21-.29v0l-.76.06-18-10.41a2,2,0,0,0-1.7-.08l-26,14.91-1.23.1Z"/><path class="cls-8" d="M168.8,150.89l27-15.52c.5-.28.44-.79-.14-1.12l-18.39-10.64a2.15,2.15,0,0,0-1.94-.08l-27,15.51c-.5.29-.44.79.13,1.12l18.4,10.65A2.15,2.15,0,0,0,168.8,150.89Z"/><path class="cls-2" d="M168,151.33a2.57,2.57,0,0,1-1.22-.31l-18.39-10.64a1,1,0,0,1-.59-.85.82.82,0,0,1,.45-.7l27-15.52a2.38,2.38,0,0,1,2.18.09L195.77,134a1,1,0,0,1,.59.85.79.79,0,0,1-.46.69l-27,15.52A2,2,0,0,1,168,151.33Zm8.2-27.75a1.47,1.47,0,0,0-.72.16l-27,15.52a.38.38,0,0,0-.22.27c0,.14.14.29.36.42L167,150.59a1.91,1.91,0,0,0,1.69.09l27-15.52c.08,0,.21-.14.21-.27s-.13-.3-.35-.43l-18.39-10.64A2,2,0,0,0,176.15,123.58Z"/><path class="cls-9" d="M161.41,145.9l25.75-14.8c.22-.13.2-.35-.06-.5l-10.28-6a1,1,0,0,0-.85,0l-25.76,14.81c-.22.13-.19.35.06.5l10.28,6A1,1,0,0,0,161.41,145.9Z"/><path class="cls-2" d="M161,146.23a1.28,1.28,0,0,1-.61-.15l-10.28-6a.6.6,0,0,1-.33-.49.5.5,0,0,1,.27-.43l25.76-14.81a1.16,1.16,0,0,1,1.1,0l10.27,6a.58.58,0,0,1,.34.49.51.51,0,0,1-.27.43l-25.76,14.81A1,1,0,0,1,161,146.23Zm15.3-21.47a.58.58,0,0,0-.25,0l-25.75,14.81s0,0,.06.07l10.28,6a.7.7,0,0,0,.61,0L187,130.88s0,0-.06-.07l-10.28-6A.74.74,0,0,0,176.34,124.76Z"/><path class="cls-16" d="M178.37,144.21l6.78-3.9c.12-.07.1-.19,0-.26l-5.49-3.18a.48.48,0,0,0-.45,0l-6.78,3.9c-.11.07-.1.18,0,.26l5.48,3.18A.48.48,0,0,0,178.37,144.21Z"/><path class="cls-2" d="M178.18,144.5a.7.7,0,0,1-.38-.1l-5.49-3.18a.4.4,0,0,1-.23-.36.36.36,0,0,1,.2-.32l6.78-3.91a.76.76,0,0,1,.7,0l5.48,3.18a.42.42,0,0,1,.23.36.36.36,0,0,1-.2.33l-6.77,3.9A.59.59,0,0,1,178.18,144.5Zm-5.5-3.63L178,144a.27.27,0,0,0,.21,0l6.62-3.81-5.36-3.11a.27.27,0,0,0-.21,0Z"/><path class="cls-2" d="M187.16,131.1l-.12.07-10.21-5.93a1,1,0,0,0-.86,0l-25.63,14.74-.07,0c-.25-.15-.28-.37-.06-.5L176,124.6a1,1,0,0,1,.85,0l10.28,6C187.36,130.75,187.38,131,187.16,131.1Z"/><path class="cls-2" d="M185.15,140.31l-.2.11-5.32-3.08a.48.48,0,0,0-.45,0l-6.58,3.79-.16-.1c-.14-.08-.15-.19,0-.26l6.78-3.9a.48.48,0,0,1,.45,0l5.49,3.18C185.25,140.12,185.27,140.24,185.15,140.31Z"/><path class="cls-2" d="M162.62,123.24l-.35-.35c.07-.07,7.33-7.44,7.34-17.33h.49C170.09,115.66,162.69,123.16,162.62,123.24Z"/><path class="cls-2" d="M149.55,132.59l-.28-.4c.13-.09,12.93-9.36,12.91-18.43h.49C162.69,123.08,150.09,132.21,149.55,132.59Z"/><path class="cls-6" d="M150.59,133.64l-.26-.41c.12-.09,12.92-9.36,12.9-18.43h.49l0,8.68c1.56-1.75,6.92-8.38,6.92-16.88h.49v15.12Zm12.65-15.56c-1.6,5.58-6.8,10.72-10,13.47l17.43-10.11V111.12a29.21,29.21,0,0,1-7,13.15l-.41.42Z"/><path class="cls-2" d="M131,163.67l-23.19-13.39,15.54-9,23.19,13.39Zm-22.21-13.39L131,163.11l14.56-8.41-22.21-12.83Z"/><polygon class="cls-9" points="108.33 147.24 131.03 160.35 146.08 151.66 123.38 138.55 108.33 147.24"/><path class="cls-2" d="M131,160.64l-23.19-13.4,15.54-9,23.19,13.39Zm-22.22-13.4L131,160.07l14.56-8.41-22.21-12.82Z"/><rect class="cls-8" x="129.87" y="154.32" width="12.78" height="0.49" transform="translate(-58.98 88.71) rotate(-29.96)"/><rect class="cls-8" x="128.11" y="153.31" width="12.78" height="0.49" transform="translate(-58.71 87.7) rotate(-29.96)"/><rect class="cls-8" x="126.35" y="152.3" width="12.78" height="0.49" transform="translate(-58.46 86.71) rotate(-29.97)"/><rect class="cls-8" x="124.86" y="152.3" width="8.76" height="0.49" transform="translate(-58.91 84.93) rotate(-29.96)"/><rect class="cls-8" x="123.1" y="151.29" width="8.76" height="0.49" transform="translate(-58.64 83.92) rotate(-29.96)"/><g id="_6" data-name="6"><path class="cls-15" d="M130.37,145c-3.41,2.17-9.24,2.33-13,.36s-4.09-5.33-.68-7.5,9.24-2.33,13-.35S133.78,142.83,130.37,145Z"/><path class="cls-2" d="M123.56,147a13.91,13.91,0,0,1-6.32-1.4c-2-1-3.12-2.47-3.18-4s.81-2.84,2.48-3.89c3.47-2.21,9.42-2.38,13.26-.37,2,1,3.11,2.46,3.18,4s-.82,2.83-2.48,3.89A13.28,13.28,0,0,1,123.56,147Zm-.08-10.61a12.73,12.73,0,0,0-6.68,1.7c-1.51,1-2.31,2.19-2.25,3.46s1.09,2.66,2.91,3.61c3.71,1.94,9.44,1.78,12.78-.34,1.51-1,2.31-2.19,2.25-3.46s-1.09-2.67-2.91-3.62A13.56,13.56,0,0,0,123.48,136.36Z"/><path class="cls-13" d="M127.77,143.2a8.94,8.94,0,0,1-8.08.22c-2.34-1.22-2.53-3.3-.42-4.65a9,9,0,0,1,8.07-.22C129.69,139.77,129.88,141.86,127.77,143.2Z"/><path class="cls-13" d="M127.55,139.08l-.29-1.62c1-.18,3.88-1,3.88-2.52,0-.51-.18-.64-.24-.68a2.64,2.64,0,0,0-1.86,0l-.51-1.57c.21-.07,2.11-.65,3.34.23a2.33,2.33,0,0,1,.92,2C132.79,138.05,128.08,139,127.55,139.08Z"/><path class="cls-2" d="M127.25,139.52l-.43-2.36.37-.07c1.12-.2,3.57-1,3.57-2.15a.6.6,0,0,0-.08-.38,2.43,2.43,0,0,0-1.52.06l-.36.11-.74-2.27.35-.12c.24-.08,2.3-.72,3.68.28a2.68,2.68,0,0,1,1.07,2.32c0,3.41-5,4.41-5.55,4.51Zm.44-1.77.16.89c1.19-.27,4.56-1.25,4.56-3.7a2,2,0,0,0-.76-1.72A3.49,3.49,0,0,0,129,133l.28.86a2.51,2.51,0,0,1,1.83.14,1.13,1.13,0,0,1,.39,1C131.51,136.67,128.71,137.5,127.69,137.75Z"/><path class="cls-14" d="M129.75,131.84a.48.48,0,0,0-.49-.5H117.78a.48.48,0,0,0-.49.5,12.27,12.27,0,0,0,1,4.91,13.66,13.66,0,0,1,1.24,3.94,2.22,2.22,0,0,0,1.32,1.56,6.32,6.32,0,0,0,5.69-.15,2,2,0,0,0,1-1.41h0a13.4,13.4,0,0,1,1.24-3.94A12.27,12.27,0,0,0,129.75,131.84Z"/><path class="cls-2" d="M123.54,143.24a6.27,6.27,0,0,1-2.89-.66,2.54,2.54,0,0,1-1.52-1.84,13.08,13.08,0,0,0-1.2-3.81,12.59,12.59,0,0,1-1-5.08.87.87,0,0,1,.25-.63.84.84,0,0,1,.62-.26h11.48a.84.84,0,0,1,.62.26.87.87,0,0,1,.25.63h0a12.56,12.56,0,0,1-1,5.08,12.91,12.91,0,0,0-1.2,3.81,2.31,2.31,0,0,1-1.2,1.67A6,6,0,0,1,123.54,143.24Zm-5.88-11.41a12.19,12.19,0,0,0,.93,4.74,13.53,13.53,0,0,1,1.28,4.07,1.86,1.86,0,0,0,1.13,1.28,5.9,5.9,0,0,0,5.31-.14,1.64,1.64,0,0,0,.85-1.13l.06-.33a12.94,12.94,0,0,1,1.23-3.75,12.16,12.16,0,0,0,.93-4.74h0a.12.12,0,0,0,0-.08l-11.57,0-.49.13Z"/><path class="cls-13" d="M128.15,133.75a9.72,9.72,0,0,1-8.81.24c-2.56-1.33-2.77-3.6-.46-5.07a9.72,9.72,0,0,1,8.81-.24C130.25,130,130.46,132.29,128.15,133.75Z"/><path class="cls-2" d="M123.54,135.17a9.51,9.51,0,0,1-4.31-1,3.48,3.48,0,0,1-2.19-2.79,3.15,3.15,0,0,1,1.71-2.71,10.06,10.06,0,0,1,9.06-.25,3.55,3.55,0,0,1,2.19,2.79,3.14,3.14,0,0,1-1.72,2.71A9,9,0,0,1,123.54,135.17Zm-.05-7.18a8.53,8.53,0,0,0-4.48,1.14,2.71,2.71,0,0,0-1.49,2.27,3.12,3.12,0,0,0,1.93,2.38,9.53,9.53,0,0,0,8.57-.23,2.68,2.68,0,0,0,1.49-2.27,3.09,3.09,0,0,0-1.93-2.38A9,9,0,0,0,123.49,128Z"/><path class="cls-15" d="M127.08,133a8.19,8.19,0,0,1-6.77.17c-2-.93-2.13-2.51-.36-3.54a8.21,8.21,0,0,1,6.78-.16C128.7,130.42,128.86,132,127.08,133Z"/><path class="cls-2" d="M123.53,134.08a8,8,0,0,1-3.33-.67,2.57,2.57,0,0,1-1.73-2,2.26,2.26,0,0,1,1.36-1.95,8.49,8.49,0,0,1,7-.17c1.09.5,1.7,1.22,1.73,2a2.25,2.25,0,0,1-1.35,1.94h0A7.63,7.63,0,0,1,123.53,134.08Zm0-5a7,7,0,0,0-3.43.79c-.73.42-1.13.95-1.11,1.5s.56,1.17,1.45,1.6a8,8,0,0,0,6.55-.16h0c.74-.43,1.13-1,1.11-1.5s-.55-1.18-1.44-1.6A7.58,7.58,0,0,0,123.5,129.08Z"/><path class="cls-8" d="M120,131.51a2.91,2.91,0,0,0-.88.75,3.36,3.36,0,0,0,1.23.93,8.21,8.21,0,0,0,6.78-.17,3,3,0,0,0,.89-.75,3.32,3.32,0,0,0-1.24-.93A8.21,8.21,0,0,0,120,131.51Z"/><path class="cls-2" d="M123.53,134.08a8,8,0,0,1-3.33-.67,3.44,3.44,0,0,1-1.33-1l-.11-.14.11-.15a3.1,3.1,0,0,1,1-.81h0a8.47,8.47,0,0,1,7-.18,3.41,3.41,0,0,1,1.32,1l.12.14-.12.15a3.06,3.06,0,0,1-1,.81A7.63,7.63,0,0,1,123.53,134.08Zm-4.14-1.82a3.45,3.45,0,0,0,1,.71,8,8,0,0,0,6.55-.16,2.76,2.76,0,0,0,.69-.54,3.4,3.4,0,0,0-1-.71,8,8,0,0,0-6.56.16A2.89,2.89,0,0,0,119.39,132.26Z"/><path class="cls-2" d="M120.69,132.67a12.29,12.29,0,0,1-1.6-.11l-.09,0-.06-.07-.07-.07-.11-.15.11-.15a3.4,3.4,0,0,1,1-.81,8.48,8.48,0,0,1,6-.55l.46.13-.37.3a4,4,0,0,1-.64.44h0A9.26,9.26,0,0,1,120.69,132.67Zm-1.17-.55a9.56,9.56,0,0,0,5.47-.93h0l.15-.09a7.75,7.75,0,0,0-5.07.62A2.6,2.6,0,0,0,119.52,132.12Z"/><path class="cls-2" d="M124.9,133.68c-.84,0-1.49-.35-1.49-.79s.65-.8,1.49-.8,1.5.35,1.5.8S125.74,133.68,124.9,133.68Zm0-1.1c-.63,0-1,.23-1,.31a1.81,1.81,0,0,0,2,0A1.35,1.35,0,0,0,124.9,132.58Z"/></g><path class="cls-6" d="M80.93,205.37,62.5,194.49a.07.07,0,0,1,0-.11l17.64-9.95a.06.06,0,0,1,.06,0l18.43,10.88a.06.06,0,0,1,0,.1L81,205.37Z"/><path class="cls-2" d="M81,205.62a.28.28,0,0,1-.15,0h0L62.38,194.7a.3.3,0,0,1-.16-.27.33.33,0,0,1,.16-.26l17.76-10,.18.06L98.75,195.1a.29.29,0,0,1,.15.27v.14l-.15.12-17.64,10A.26.26,0,0,1,81,205.62ZM62.9,194.44,81,205.11l17.27-9.75L80.17,184.69Z"/><path class="cls-11" d="M62.41,194.54v6.58a.05.05,0,0,0,0,0L80.86,212a.06.06,0,0,0,.1,0v-6.54a.05.05,0,0,0,0,0L62.5,194.49A.06.06,0,0,0,62.41,194.54Z"/><path class="cls-2" d="M80.9,212.27a.3.3,0,0,1-.16-.05L62.19,201.31l0-.19v-6.58a.32.32,0,0,1,.47-.26l18.42,10.88a.3.3,0,0,1,.15.26V212a.33.33,0,0,1-.15.27A.42.42,0,0,1,80.9,212.27ZM62.65,201l18.06,10.63v-6.11L62.65,194.86Z"/><path class="cls-15" d="M98.72,195.47v6.65a.05.05,0,0,1,0,0L81.05,212A.06.06,0,0,1,81,212v-6.54a.05.05,0,0,1,0,0l17.64-10A.06.06,0,0,1,98.72,195.47Z"/><path class="cls-2" d="M81,212.27a.42.42,0,0,1-.16,0,.33.33,0,0,1-.15-.27v-6.54a.32.32,0,0,1,.15-.26l17.65-10a.32.32,0,0,1,.3,0,.32.32,0,0,1,.16.27v6.65a.31.31,0,0,1-.15.26l-17.65,9.85A.28.28,0,0,1,81,212.27Zm.18-6.74v6.12L98.48,202v-6.23Z"/><path class="cls-15" d="M80.25,186.47v6.59a.05.05,0,0,1,0,.05l-8.07,4.63h-.06l-5.77-3.4a.06.06,0,0,1,0-.11l13.83-7.81A.06.06,0,0,1,80.25,186.47Z"/><path class="cls-2" d="M72.12,198a.32.32,0,0,1-.16,0l-5.76-3.4a.33.33,0,0,1-.15-.27.29.29,0,0,1,.16-.26L80,186.21a.29.29,0,0,1,.31,0,.3.3,0,0,1,.15.26v6.59a.3.3,0,0,1-.15.26L72.27,198A.26.26,0,0,1,72.12,198Zm-5.4-3.7,5.4,3.19L80,193v-6.16Z"/><path class="cls-11" d="M80.28,193.11l8.79,5.16h.06l5.67-3.2s0-.09,0-.11l-14.46-8.54a.07.07,0,0,0-.1.06v6.58A.09.09,0,0,0,80.28,193.11Z"/><path class="cls-2" d="M89.1,198.52a.37.37,0,0,1-.15,0l-8.79-5.16a.3.3,0,0,1-.15-.26v-6.58a.3.3,0,0,1,.16-.27l.12-.07.18.07,14.46,8.54a.31.31,0,0,1,.15.26.3.3,0,0,1-.16.27l-5.66,3.2A.29.29,0,0,1,89.1,198.52ZM80.5,193,89.11,198l5.3-3L80.5,186.8Z"/><path class="cls-14" d="M80.25,193.2v9.25a.06.06,0,0,1-.09.06l-8-4.7a.06.06,0,0,1,0-.1l8-4.56A.06.06,0,0,1,80.25,193.2Z"/><path class="cls-2" d="M80.19,202.76a.32.32,0,0,1-.16,0L72.09,198a.26.26,0,0,1-.15-.26.33.33,0,0,1,.15-.27l8-4.55a.29.29,0,0,1,.31,0,.3.3,0,0,1,.15.26v9.25a.3.3,0,0,1-.16.27A.26.26,0,0,1,80.19,202.76Zm-7.58-5,7.4,4.37v-8.61Z"/><path class="cls-10" d="M80.35,193.15,89,198.23a.07.07,0,0,1,0,.11l-8.13,4.59-.63-.37V193.2S80.31,193.13,80.35,193.15Z"/><path class="cls-2" d="M80.87,203.21,80,202.7v-9.5a.3.3,0,0,1,.15-.26.29.29,0,0,1,.31,0L89.13,198a.3.3,0,0,1,.16.26.3.3,0,0,1-.16.27Zm-.37-.79.38.23,7.73-4.37-8.11-4.76Z"/><path class="cls-11" d="M64.17,202.3l2.77,21.12a.05.05,0,0,0,0,.05l13.89,8.25a.06.06,0,0,0,.1-.05V212.1a.05.05,0,0,0,0,0l-16.67-9.81C64.21,202.22,64.16,202.25,64.17,202.3Z"/><path class="cls-2" d="M80.9,232a.42.42,0,0,1-.16,0l-14-8.33,0-.17-2.77-21.11h0a.32.32,0,0,1,.14-.3.3.3,0,0,1,.33,0l16.78,9.88,0,.19v19.57a.33.33,0,0,1-.15.27A.42.42,0,0,1,80.9,232ZM67.17,223.3l13.54,8V212.21l-16.25-9.57Z"/><path class="cls-14" d="M81.05,231.73l12.77-7.31a.05.05,0,0,0,0,0l2.89-21c0-.05,0-.08-.09-.06L81,212.05a.05.05,0,0,0,0,0v19.57A.06.06,0,0,0,81.05,231.73Z"/><path class="cls-2" d="M81,232a.26.26,0,0,1-.15,0,.32.32,0,0,1-.16-.27V212.1a.33.33,0,0,1,.17-.27l15.65-8.73a.31.31,0,0,1,.32,0,.3.3,0,0,1,.13.3l-2.9,21.11-.13.11-12.78,7.31A.28.28,0,0,1,81,232Zm.18-19.77v19.15l12.42-7.11,2.83-20.55Z"/><path class="cls-13" d="M81,197.73l3.31.11a1.76,1.76,0,0,1,1.6,1.17l.31.87a.08.08,0,0,1,0,.08l-5.25,3a.08.08,0,0,1-.08,0l-2.26-3.27a.07.07,0,0,1,0-.09l2.35-1.79Z"/><path class="cls-2" d="M80.89,203.17a.3.3,0,0,1-.25-.14l-2.26-3.26a.32.32,0,0,1,.06-.42l2.43-1.85H81l3.31.1a2,2,0,0,1,1.82,1.34l.31.87a.31.31,0,0,1-.14.37l-5.25,3A.26.26,0,0,1,80.89,203.17Zm-2-3.54,2.07,3,5-2.8-.25-.73a1.53,1.53,0,0,0-1.38-1L81,198Z"/><path class="cls-13" d="M74.41,199,79,194.89a1.3,1.3,0,0,1,2,.34l1.7,3.09a.93.93,0,0,1-.32,1.24L80.24,201h0l-4.06-.82h0l-1.69-1A.06.06,0,0,1,74.41,199Z"/><path class="cls-2" d="M80.28,201.21l-.15,0L76,200.35l-1.81-1.07,0-.17a.31.31,0,0,1,.1-.26l4.58-4.14a1.58,1.58,0,0,1,1.3-.38,1.55,1.55,0,0,1,1.09.79l1.7,3.08a1.19,1.19,0,0,1-.39,1.57Zm-5.52-2.16,1.47.87,3.94.78,2.09-1.34a.69.69,0,0,0,.23-.92l-1.69-3.09a1.06,1.06,0,0,0-1.64-.27Z"/><path class="cls-14" d="M75.74,199.78l3.7-.34a1.26,1.26,0,0,1,1.37,1.21l.06,2.18a.06.06,0,0,1-.09.06l-5.06-3A.07.07,0,0,1,75.74,199.78Z"/><path class="cls-2" d="M80.81,203.14a.42.42,0,0,1-.16,0l-5.06-3a.31.31,0,0,1,.13-.57h0l3.7-.34a1.52,1.52,0,0,1,1.13.37,1.49,1.49,0,0,1,.5,1.08l.07,2.17a.35.35,0,0,1-.15.28A.47.47,0,0,1,80.81,203.14ZM76.33,200l4.29,2.53-.06-1.85a1,1,0,0,0-1.1-1Z"/><rect class="cls-2" x="79.81" y="207.41" width="18.09" height="0.49" transform="translate(-89.9 69.59) rotate(-29.15)"/><rect class="cls-2" x="72.31" y="197.37" width="0.49" height="19.5" transform="matrix(0.51, -0.86, 0.86, 0.51, -142.75, 164.62)"/><path class="cls-4" d="M244.11,243.58a1.4,1.4,0,0,1-1.65-1.05l-9.23-41.15a36.59,36.59,0,0,0-14.78-21.92l-16.84,37.76a1.4,1.4,0,0,1-1.83.7h0a1.39,1.39,0,0,1-.7-1.83l18.17-40.7,1.35.85a39.33,39.33,0,0,1,17.32,24.53l9.24,41.16a1.4,1.4,0,0,1-1,1.65Z"/><path class="cls-2" d="M243.81,244a1.74,1.74,0,0,1-.94-.27,1.71,1.71,0,0,1-.77-1.1l-9.24-41.15A36.31,36.31,0,0,0,218.61,180L202,217.37a1.77,1.77,0,0,1-2.32.89,1.71,1.71,0,0,1-.92-1,1.73,1.73,0,0,1,0-1.34l18.35-41.1,1.71,1.09a39.74,39.74,0,0,1,17.49,24.75l9.23,41.16a1.78,1.78,0,0,1-.23,1.33,1.75,1.75,0,0,1-1.1.77A1.69,1.69,0,0,1,243.81,244ZM218.3,178.9l.37.26a37,37,0,0,1,14.93,22.13l9.23,41.16a1,1,0,0,0,1.2.76,1.05,1.05,0,0,0,.63-.44,1,1,0,0,0,.13-.76l-9.23-41.16a39,39,0,0,0-17.16-24.29l-1-.62-18,40.31a1,1,0,0,0,0,.77,1,1,0,0,0,.52.55,1,1,0,0,0,1.33-.5Z"/><path class="cls-15" d="M184.79,208.39s-6.85,5.24-13,6.4a2.88,2.88,0,0,0-1.59,4.77l.07.07,3.91-.21c3.44-.18,6.87.19,10.05-1.17,1.46-.62,2.95-1.71,3.08.43,0,0,.22,1,3.21.13a3.32,3.32,0,0,0,2.19-4.08c-.39-1.41-.87-2.81-1.14-4.26-.2-1-.92-3-3.49-2.17C184.66,209.45,184.79,208.39,184.79,208.39Z"/><path class="cls-2" d="M170.13,220l-.19-.19a3.09,3.09,0,0,1-.72-3.14,3.28,3.28,0,0,1,2.51-2.26c6-1.13,12.76-6.28,12.83-6.33l.71-.55-.1.83c.08.06.62.3,2.8-.42a3,3,0,0,1,2.55.1,3.33,3.33,0,0,1,1.42,2.35c.2,1,.5,2,.79,3,.12.39.24.79.35,1.19a3.68,3.68,0,0,1-2.44,4.54c-1.54.44-2.63.49-3.25.12a.9.9,0,0,1-.44-.53c0-.53-.14-.83-.29-.93s-1,.17-1.61.47l-.66.3a19.94,19.94,0,0,1-7.7,1.13c-.83,0-1.65,0-2.48.06Zm14.55-11.07c-1.48,1.08-7.36,5.19-12.81,6.22a2.54,2.54,0,0,0-1.94,1.75,2.34,2.34,0,0,0,.5,2.33l3.74-.19c.84-.05,1.67-.06,2.51-.07,2.61,0,5.07-.07,7.42-1.07l.63-.29c.87-.41,1.69-.8,2.31-.43a1.61,1.61,0,0,1,.64,1.39c.09.09.61.49,2.75-.13a3,3,0,0,0,1.93-3.62l-.34-1.18a31.5,31.5,0,0,1-.81-3.11,2.75,2.75,0,0,0-1.07-1.84,2.31,2.31,0,0,0-1.93,0c-1.86.62-3,.71-3.53.29Z"/><path class="cls-2" d="M174.83,215.53a3.26,3.26,0,0,1,.91-3.81,2.49,2.49,0,0,1,3.5.06l-.7.71a1.52,1.52,0,0,0-2.14,0,2.3,2.3,0,0,0-.68,2.65Z"/><path class="cls-17" d="M178,213.59a3.29,3.29,0,0,1,.91-3.82,2.49,2.49,0,0,1,3.5.06l-.69.71a1.51,1.51,0,0,0-2.14,0,2.29,2.29,0,0,0-.69,2.64Z"/><path class="cls-6" d="M183.5,202.68l.7,6a1.47,1.47,0,0,0,1.45,1.33l1.89,0a1.49,1.49,0,0,0,1.46-1.63l-.66-8.31Z"/><path class="cls-2" d="M185.65,210.22a1.73,1.73,0,0,1-1.7-1.54l-.71-6.14,5.31-2.93.69,8.69a1.78,1.78,0,0,1-.46,1.34,1.63,1.63,0,0,1-1.24.55l-1.88,0Zm-1.88-7.41.67,5.81a1.22,1.22,0,0,0,1.21,1.11h0l1.89,0a1.18,1.18,0,0,0,.88-.39,1.27,1.27,0,0,0,.33-1l-.63-7.93Z"/><path class="cls-13" d="M176,159.67c-3.35,5.73-2.11,12.17-1.65,13.86l9.3,32.66a1.25,1.25,0,0,0,1.34.92l2.86-.35a1.28,1.28,0,0,0,1.09-1.19c.18-3.57.82-15.29,1.37-21.91.5-6.07-1.65-9.35-2.57-10.46a.21.21,0,0,1,.17-.35c1.34.2,8.82-7.86,8.6-10.51C196,155.75,176.66,158.55,176,159.67Z"/><path class="cls-2" d="M184.84,207.36a1.47,1.47,0,0,1-1.42-1.1l-9.3-32.66c-.22-.78-2-7.8,1.67-14,.56-1,10.28-2.51,16.2-1.15,3,.69,4.61,2,4.77,3.92s-3.47,6.47-6.14,9c-1.26,1.18-2.15,1.79-2.65,1.8,1,1.21,3.08,4.55,2.58,10.58-.57,6.9-1.24,19.45-1.37,21.9a1.5,1.5,0,0,1-1.3,1.42l-2.86.35Zm-8.63-47.56c-3.55,6.07-1.83,12.91-1.62,13.67l9.3,32.66a1,1,0,0,0,1.07.74l2.86-.36a1,1,0,0,0,.87-1c.13-2.44.8-15,1.38-21.91.49-6-1.6-9.18-2.52-10.28a.49.49,0,0,1-.05-.53.44.44,0,0,1,.45-.22c.17,0,.87-.29,2.33-1.66,2.94-2.76,6.12-7,6-8.59s-1.29-2.57-3.47-3.24C186.94,157.31,176.76,159.14,176.21,159.8Z"/><path class="cls-4" d="M234.58,201.07h0a1.39,1.39,0,0,0-1.88-.53l-25.92,14.38a34.83,34.83,0,0,0-18.15-22.45l-1.29-.64-18.1,40.56a1.38,1.38,0,0,0,.7,1.83h0a1.39,1.39,0,0,0,1.82-.7l16.92-37.91a32,32,0,0,1,15.8,21.68l8.17,41.5a1.37,1.37,0,0,0,1.62,1.08h0a1.38,1.38,0,0,0,1.09-1.62l-8-40.51L234,203A1.38,1.38,0,0,0,234.58,201.07Z"/><path class="cls-2" d="M214,260.28a1.79,1.79,0,0,1-1-.3,1.73,1.73,0,0,1-.74-1.12l-8.16-41.5a31.85,31.85,0,0,0-15.27-21.22L172.1,233.67a1.75,1.75,0,1,1-3.2-1.43l18.26-40.92,1.63.82A35,35,0,0,1,207,214.36l25.5-14.15a1.77,1.77,0,0,1,2.39.68h0a1.79,1.79,0,0,1,.15,1.34,1.76,1.76,0,0,1-.84,1.05l-26.41,14.65,7.91,40.25a1.76,1.76,0,0,1-.26,1.32,1.73,1.73,0,0,1-1.12.74A2,2,0,0,1,214,260.28Zm-25.5-65.19.36.2a32.55,32.55,0,0,1,16,21.92l8.16,41.5a1,1,0,0,0,.43.64,1,1,0,0,0,.76.16,1.06,1.06,0,0,0,.64-.43,1,1,0,0,0,.15-.76l-8-40.78,26.89-14.92a1,1,0,0,0,.48-.6,1,1,0,0,0-.09-.76,1,1,0,0,0-1.37-.4l-26.35,14.62-.12-.47a34.23,34.23,0,0,0-17.95-22.2l-.94-.47-17.94,40.21a1,1,0,0,0,1.84.81Z"/><path class="cls-4" d="M230.85,178.75h0a1.37,1.37,0,0,1,.32-1.77c3.52-2.85,3.59-7.57,3.4-9.77a1.38,1.38,0,0,1,1.09-1.47h0a1.38,1.38,0,0,1,1.66,1.22c.24,2.75.13,8.55-4.44,12.18A1.37,1.37,0,0,1,230.85,178.75Z"/><path class="cls-2" d="M232,179.8a1.63,1.63,0,0,1-.31,0,1.75,1.75,0,0,1-1.2-.83h0a1.75,1.75,0,0,1,.41-2.26c3.31-2.67,3.46-7.06,3.26-9.44a1.76,1.76,0,0,1,1.38-1.87,1.79,1.79,0,0,1,1.42.31,1.75,1.75,0,0,1,.7,1.25c.28,3.09.05,8.83-4.58,12.51A1.72,1.72,0,0,1,232,179.8Zm3.9-13.73-.21,0a1,1,0,0,0-.8,1.06c.18,2,.19,7.09-3.53,10.1a1,1,0,0,0-.24,1.29h0a1,1,0,0,0,.69.47.91.91,0,0,0,.78-.19c4.36-3.46,4.56-8.91,4.3-11.86a1,1,0,0,0-1-.91Z"/><path class="cls-5" d="M235.87,187.9h0a112.42,112.42,0,0,1-23.93,13.93l-.84.37c-3.83,1.67-9.69,1.37-14.22-.72l-13.67-6.32c-5.61-2.6-8.25-9.9-4.58-12.59l1.34,2.7a154.66,154.66,0,0,1,27.32-15.78h0c4.8-2.18,12.68-1.12,17.09,2.3l11.39,5.64C239.08,180,238.61,185.77,235.87,187.9Z"/><path class="cls-2" d="M205.26,203.52a20.53,20.53,0,0,1-8.48-1.82l-13.67-6.32a11.2,11.2,0,0,1-6.39-8.47,4.78,4.78,0,0,1,1.76-4.54l.24-.17,1.34,2.7a154.74,154.74,0,0,1,27.13-15.63c4.9-2.23,12.84-1.17,17.34,2.33l11.34,5.61a6.74,6.74,0,0,1,2.47,5.44A7,7,0,0,1,236,188.1a112.62,112.62,0,0,1-24,14l-.85.37A14.93,14.93,0,0,1,205.26,203.52ZM178.54,183a4.41,4.41,0,0,0-1.33,3.91,10.7,10.7,0,0,0,6.1,8.08L197,201.26c4.48,2.07,10.25,2.36,14,.71l.84-.37a111.68,111.68,0,0,0,23.88-13.89h0a6.46,6.46,0,0,0,2.13-5.06,6.28,6.28,0,0,0-2.23-5L224.27,172c-4.41-3.42-12.12-4.46-16.88-2.3a154.81,154.81,0,0,0-27.28,15.75l-.23.17Z"/><path class="cls-6" d="M235.58,184.32h0a112.09,112.09,0,0,1-23.92,13.93l-.85.37c-3.82,1.67-9.68,1.37-14.21-.72l-13.68-6.32c-5.6-2.6-7.21-7-3.54-9.67l.3-.23A155.25,155.25,0,0,1,207,165.91h0c4.8-2.18,12.69-1.12,17.09,2.3l10.54,8.19C237.94,179,238.33,182.19,235.58,184.32Z"/><path class="cls-2" d="M205,199.94a20.77,20.77,0,0,1-8.49-1.82l-13.67-6.32c-3.3-1.53-5.41-3.79-5.64-6.05a4.4,4.4,0,0,1,2.06-4l.3-.22a155.1,155.1,0,0,1,27.36-15.8c4.9-2.23,12.84-1.17,17.34,2.33l10.54,8.19c1.85,1.44,2.87,3.13,2.87,4.78a4.42,4.42,0,0,1-1.92,3.52h0a112.38,112.38,0,0,1-24,14l-.85.37A15,15,0,0,1,205,199.94ZM213,165a14.58,14.58,0,0,0-5.9,1.13,154.71,154.71,0,0,0-27.27,15.75l-.3.22a3.91,3.91,0,0,0-1.86,3.6c.21,2.09,2.21,4.2,5.36,5.65l13.67,6.33c4.48,2.07,10.24,2.36,14,.71l.85-.37a112.27,112.27,0,0,0,23.87-13.89h0a4,4,0,0,0,1.73-3.14c0-1.49-.95-3.05-2.68-4.4l-10.54-8.19A18.56,18.56,0,0,0,213,165Z"/><path class="cls-15" d="M155.32,214.15s-7.63,3.93-13.87,4a2.86,2.86,0,0,0-2.38,4.41l.06.08,3.89.5c3.42.44,6.9,1.44,10.26.67,1.55-.35,3-1.17,2.79,1,0,0,.05,1,3.14.7a3.28,3.28,0,0,0,2.85-3.62c-.15-1.46-.39-2.92-.41-4.4,0-1.06-.39-3.14-3.07-2.76C155,215.17,155.32,214.15,155.32,214.15Z"/><path class="cls-2" d="M158.12,225.88a3.2,3.2,0,0,1-2.08-.52,1,1,0,0,1-.35-.6c.08-.74-.05-.93-.11-1-.21-.17-.87,0-1.45.18l-.76.2c-2.64.6-5.34.15-8-.29-.81-.14-1.63-.27-2.44-.38l-4.05-.52-.15-.22a3.08,3.08,0,0,1-.18-3.23,3.27,3.27,0,0,1,2.86-1.77c6.07,0,13.62-3.88,13.7-3.92l.79-.41-.24.79c.07.08.54.41,2.83.09a3,3,0,0,1,2.49.55,3.44,3.44,0,0,1,1,2.58,29.38,29.38,0,0,0,.26,3.12c.05.42.1.83.14,1.24a3.65,3.65,0,0,1-3.18,4C158.84,225.86,158.46,225.88,158.12,225.88Zm-1.67-1.18c.07.11.5.6,2.72.37a2.88,2.88,0,0,0,2.51-3.21c0-.41-.09-.82-.13-1.23a28,28,0,0,1-.27-3.2,2.79,2.79,0,0,0-.75-2,2.3,2.3,0,0,0-1.89-.38c-1.93.28-3.08.16-3.52-.35h0c-1.64.8-8.12,3.79-13.66,3.82a2.5,2.5,0,0,0-2.19,1.37,2.37,2.37,0,0,0,.08,2.4l3.73.48c.82.1,1.64.24,2.47.38a20,20,0,0,0,7.66.3l.72-.19c.85-.24,1.64-.46,2.15,0A1.66,1.66,0,0,1,156.45,224.7Z"/><path class="cls-6" d="M157.51,207.09l-1.74,5.74a1.53,1.53,0,0,0,.8,1.83l1.74.77a1.45,1.45,0,0,0,2-.87l2.7-7.86Z"/><path class="cls-2" d="M158.9,215.81a1.59,1.59,0,0,1-.7-.16l-1.73-.77a1.78,1.78,0,0,1-.94-2.12l1.8-5.9,6-.43-2.82,8.21a1.76,1.76,0,0,1-.95,1A1.7,1.7,0,0,1,158.9,215.81Zm-1.2-8.48L156,212.9a1.29,1.29,0,0,0,.67,1.54l1.73.77a1.21,1.21,0,0,0,1,0,1.3,1.3,0,0,0,.68-.74l2.58-7.51Z"/><path class="cls-2" d="M144.3,219.41a3.27,3.27,0,0,1,1.55-3.6,2.48,2.48,0,0,1,3.43.68l-.81.58a1.51,1.51,0,0,0-2.1-.42,2.25,2.25,0,0,0-1.11,2.48Z"/><path class="cls-2" d="M147.76,218.06a3.25,3.25,0,0,1,1.54-3.6,2.5,2.5,0,0,1,3.44.69l-.81.57a1.52,1.52,0,0,0-2.1-.42,2.28,2.28,0,0,0-1.12,2.48Z"/><path class="cls-13" d="M198.85,174.06s-22.16-11.58-32.53-7.47a6.2,6.2,0,0,0-3.66,4.6l-6.6,39.6a1.29,1.29,0,0,0,.77,1.45l2.7,1a1.22,1.22,0,0,0,1.5-.54c1.77-3.08,7.58-13.16,11-18.78,3.16-5.14,2.72-9.08,2.4-10.5a.2.2,0,0,1,.31-.22c3.83,2.81,30.6,21,43,1.74C228.05,169.13,198.85,174.06,198.85,174.06Z"/><path class="cls-2" d="M160,213.62a1.42,1.42,0,0,1-.53-.1l-2.69-1.05a1.51,1.51,0,0,1-.93-1.72l6.6-39.6a6.39,6.39,0,0,1,3.81-4.79c10.17-4,31,6.6,32.66,7.45,1.42-.23,17-2.64,20.61,2.83,1.34,2,.85,4.89-1.47,8.48a18.2,18.2,0,0,1-12.29,8.5c-13.2,2.42-28.83-8.52-31-10.1.33,1.55.68,5.49-2.45,10.58-3.45,5.59-9.32,15.78-11,18.77A1.45,1.45,0,0,1,160,213.62ZM171.66,166a14.18,14.18,0,0,0-5.25.86,6,6,0,0,0-3.51,4.42l-6.6,39.59a1,1,0,0,0,.62,1.18l2.7,1.05a1,1,0,0,0,1.2-.43c1.71-3,7.59-13.19,11-18.79,3.11-5,2.7-8.89,2.37-10.32a.45.45,0,0,1,.2-.48.44.44,0,0,1,.5,0c1.75,1.29,17.51,12.52,30.72,10.09a17.68,17.68,0,0,0,12-8.28c2.21-3.42,2.71-6.09,1.49-8-3.53-5.35-20-2.63-20.21-2.61l-.08,0-.07,0C198.55,174.18,182.66,166,171.66,166Z"/><path class="cls-17" d="M179.51,134.59l2.56-2a2.56,2.56,0,0,1,1.7-.34l1.28.22a2.7,2.7,0,0,1,1.54.86l2.85,3.18Z"/><path class="cls-2" d="M190.11,136.91l-11.17-2.18,3-2.31a2.74,2.74,0,0,1,1.89-.39l1.28.21a3,3,0,0,1,1.71,1Zm-10-2.45,8.68,1.69-2.37-2.63a2.44,2.44,0,0,0-1.39-.79l-1.28-.22a2.38,2.38,0,0,0-1.5.28Z"/><path class="cls-6" d="M203.4,142.23a60.34,60.34,0,0,0-13-4.61c-.15-.27-.26-.45-.26-.45l-3.55-3.27a2.42,2.42,0,0,0-1.39-.64l-1.52-.19a2.51,2.51,0,0,0-1.35.22l-2.81,1.3L177.16,136l-.29.62a2,2,0,0,0,1.76.06l1.06-.27a3.4,3.4,0,0,1,1.15-.08l2.4.28a1.78,1.78,0,0,1,1.47,1.11,4,4,0,0,0,1.63,1.77l-.4.26a4.11,4.11,0,0,1-1.94.65l-1,.06a1.32,1.32,0,0,1-.93-.28c-.72-.55-1.9-.59-2,.24l1.61,1.06a4.14,4.14,0,0,0,1.75.65l1.72.21a4.13,4.13,0,0,0,1.91-.22l.53-.06a15.17,15.17,0,0,1,1.93.62,24.86,24.86,0,0,1,6.41,4.17,11.07,11.07,0,0,0,6.39,2.66,3.11,3.11,0,0,0,1.14,0C204,149.2,213.36,147.34,203.4,142.23Z"/><path class="cls-2" d="M202.9,149.77l-.66,0a11.27,11.27,0,0,1-6.53-2.72,25.09,25.09,0,0,0-6.34-4.14,18.34,18.34,0,0,0-1.85-.59l-.47.05a4.47,4.47,0,0,1-2,.22l-1.72-.21a4.36,4.36,0,0,1-1.85-.68l-1.75-1.15,0-.16a1,1,0,0,1,.62-.75,2,2,0,0,1,1.82.36,1.19,1.19,0,0,0,.77.23l1-.07a3.78,3.78,0,0,0,1.82-.6l.1-.06a4.08,4.08,0,0,1-1.41-1.68,1.58,1.58,0,0,0-1.28-1l-2.4-.27a3,3,0,0,0-1.07.07l-1.05.27a2.25,2.25,0,0,1-1.93-.08l-.21-.11.42-.9,2.42-1.43,2.83-1.31a2.69,2.69,0,0,1,1.48-.24l1.52.19a2.77,2.77,0,0,1,1.53.7l3.59,3.32s.09.14.21.37a58.81,58.81,0,0,1,13,4.61h0c3.28,1.68,4.81,3.17,4.68,4.55-.17,1.78-3.07,2.63-4.31,3l-.38.11A1.22,1.22,0,0,1,202.9,149.77Zm-15.36-8h0a17.17,17.17,0,0,1,2,.63,25.53,25.53,0,0,1,6.48,4.22,10.77,10.77,0,0,0,6.25,2.6,2.77,2.77,0,0,0,1,0,3.14,3.14,0,0,1,.45-.14c1-.31,3.82-1.12,4-2.58.08-.78-.63-2.13-4.41-4.07a59.36,59.36,0,0,0-13-4.59l-.1,0-.06-.09-.23-.42-3.53-3.24a2.23,2.23,0,0,0-1.25-.58l-1.52-.18a2.22,2.22,0,0,0-1.22.19l-2.8,1.3-2.27,1.34-.15.33a1.83,1.83,0,0,0,1.32,0l1.1-.29a3.51,3.51,0,0,1,1.25-.08l2.4.28a2.06,2.06,0,0,1,1.67,1.26,3.84,3.84,0,0,0,1.53,1.66l.32.21-.72.46a4.34,4.34,0,0,1-2.06.68l-1,.07a1.61,1.61,0,0,1-1.1-.33,1.5,1.5,0,0,0-1.34-.29.43.43,0,0,0-.27.22l1.47,1a3.88,3.88,0,0,0,1.64.6l1.72.22a3.92,3.92,0,0,0,1.8-.21l.06,0Z"/><path class="cls-2" d="M185.42,135l-1.48-.43a4.43,4.43,0,0,0-1.88-.11l-2.51.4-.08-.48L182,134a4.72,4.72,0,0,1,2.08.12l1.49.43Z"/><path class="cls-15" d="M231.51,131.24c-3.94-5-14.52.62-14.52.62l-8.6,4.66a12.78,12.78,0,0,0-4.32,3.82c-3.92,5.56-12.94,19.73-14.87,34.92A26.62,26.62,0,0,0,194,186h0l0,.07c.05.07,2.75,3.48,4.84,6.31a8.38,8.38,0,0,0,7.35,3c6.7-.27,20-4.32,23.82-14.37,2.86-7.44,2.47-12.38,1.47-15.42,1.92-4.44,3-7.62,3-7.62S235.45,136.22,231.51,131.24Z"/><path class="cls-2" d="M205.75,195.8a8.51,8.51,0,0,1-7.14-3.22c-1.84-2.5-4.15-5.43-4.81-6.26l-.28-.37h0a26.89,26.89,0,0,1-4.69-10.63v-.11c1.94-15.32,11.09-29.64,14.94-35.08a13.15,13.15,0,0,1,4.44-3.94l8.61-4.66c.44-.23,10.9-5.69,15-.52s3.14,26.11,3.1,27l0,.1s-1.07,3.18-2.94,7.52c.93,2.92,1.39,8-1.52,15.54-3.87,10.08-16.87,14.31-24.16,14.61Zm-11.36-10c.67.85,3,3.78,4.83,6.29,1.47,2,4,3,7,2.9,6-.25,19.61-4,23.49-14.13,2.88-7.5,2.38-12.39,1.46-15.17l0-.14,0-.13c1.77-4.08,2.82-7.12,3-7.54,0-1.2.76-21.76-2.95-26.46s-13.95.67-14.05.73l-8.6,4.65a12.46,12.46,0,0,0-4.19,3.71c-3.81,5.39-12.86,19.56-14.8,34.69a26.59,26.59,0,0,0,4.74,10.5Z"/><path class="cls-2" d="M208.42,105.38s-1.9-2.88-.57-4.49c1.17-1.43,1.46,2.76,5.6,2.59S208.42,105.38,208.42,105.38Z"/><path class="cls-6" d="M219.13,126.33l.51-3.85-3.76.45a2.81,2.81,0,0,0,.22-.5,57.61,57.61,0,0,1,4-9.15l-13.54-7.65a35.72,35.72,0,0,0-2.65,10.23c0,.34-.13,1-.13,1l-1.35,3.31a2.77,2.77,0,0,0,1.43.45,31.34,31.34,0,0,0,.86,5.25,1.13,1.13,0,0,0,1.2.85,28.93,28.93,0,0,0,4-.56l-.13.26a9.37,9.37,0,0,1,.33,9.17s8,1.44,11.3-3.18A6.81,6.81,0,0,1,219.13,126.33Z"/><path class="cls-2" d="M213,136a18,18,0,0,1-2.92-.23l-.32-.06.15-.29a9.2,9.2,0,0,0-.31-8.92l-.05-.07a31.14,31.14,0,0,1-3.62.48,1.39,1.39,0,0,1-1.44-1,30.74,30.74,0,0,1-.85-5.08,3,3,0,0,1-1.35-.48l-.16-.11,1.42-3.49s.08-.57.12-.9a35.73,35.73,0,0,1,2.67-10.3l.11-.24,14,7.9-.11.21a58.63,58.63,0,0,0-4,9.1.78.78,0,0,1-.05.14l3.65-.44-.56,4.17a6.61,6.61,0,0,0,2.23,5.81l.19.14-.14.2C219.54,135.45,215.69,136,213,136Zm-2.51-.67c1.48.2,7.71.79,10.61-2.94a7,7,0,0,1-2.23-6.11l.47-3.54-3.91.47.22-.41a2.66,2.66,0,0,0,.19-.46,57.42,57.42,0,0,1,3.93-9l-13.1-7.4a36.67,36.67,0,0,0-2.52,9.9c0,.35-.13,1-.13,1L202.76,120a2.43,2.43,0,0,0,1.12.3h.23l0,.23a29.86,29.86,0,0,0,.85,5.21.87.87,0,0,0,.94.67,31.36,31.36,0,0,0,4-.55l.52-.11-.32.59A9.67,9.67,0,0,1,210.51,135.35Z"/><path class="cls-4" d="M214.44,112.67s-4.39,6-3.41,11.54c.69,3.88-5.09,4.5-5.09,4.5s-2.85-1.43-1.45-5l2.75-.67a2.45,2.45,0,0,0,1.8-1.77c.62-2.42,1.62-7.3.23-9.58-1.88-3.1,5.82-2.19,5.82-2.19Z"/><path class="cls-2" d="M205.87,129.1l-.1,0a4.11,4.11,0,0,1-1.63-5.44l.08-.18,2.93-.71a2.1,2.1,0,0,0,1.53-1.5c.52-2.06,1.61-7.09.27-9.29a1.62,1.62,0,0,1-.15-1.77c1-1.57,5.79-1.06,6.33-1l.41,0-.8,3.68c0,.06-4.28,6-3.35,11.25a3.33,3.33,0,0,1-.58,2.66c-1.43,1.9-4.69,2.27-4.83,2.28Zm-1.1-5a3.28,3.28,0,0,0,1.24,4.25c.57-.08,3.1-.51,4.2-2a2.59,2.59,0,0,0,.45-2.08c-1-5.34,2.92-11,3.42-11.76l.56-2.64c-1.89-.18-4.68-.13-5.21.7-.05.08-.22.34.16,1,1.44,2.36.5,7.2-.19,9.87a2.82,2.82,0,0,1-2.07,2Z"/><path class="cls-4" d="M202.65,100.76a5.55,5.55,0,0,0-.8,5.29c.74,2.33,2.79,5.19,7.8,6.92,7.74,2.67,3.8,4,2.86,8.43a10.21,10.21,0,0,0,.88,7.1.42.42,0,0,0,.41.18l3.58-.5a9.78,9.78,0,0,0,2.8-.81l.48-.22a.64.64,0,0,0,.38-.7c-.16-.9.35-3.24,2.47-5.56,3.42-3.77,5.09-7.13,3.84-11.73-1.52-5.63-7.16-7.49-11.41-6.91-5.52.76-9.42,1.83-10.94-.77C203.89,99.59,203.37,99.9,202.65,100.76Z"/><path class="cls-2" d="M213.73,129.06a.82.82,0,0,1-.65-.34,10.77,10.77,0,0,1-.94-7.4,12.8,12.8,0,0,1,1.15-3c.5-1,.86-1.78.59-2.43-.33-.81-1.71-1.61-4.35-2.52-5.34-1.84-7.32-4.91-8-7.16a5.9,5.9,0,0,1,.87-5.64h0a1.68,1.68,0,0,1,1.31-.81c.54,0,1,.52,1.65,1.58,1.18,2,4,1.58,8.25.93l2.32-.34c4.73-.65,10.31,1.61,11.82,7.18,1.43,5.26-1,8.91-3.93,12.08-2.08,2.29-2.5,4.53-2.37,5.25a1,1,0,0,1-.6,1.1l-.47.22a10.66,10.66,0,0,1-2.91.84l-3.58.5ZM202.93,101a5.18,5.18,0,0,0-.73,4.93c.67,2.09,2.53,4.94,7.57,6.68,2.94,1,4.37,1.9,4.81,2.94s-.07,1.93-.62,3a12.94,12.94,0,0,0-1.09,2.88,10.13,10.13,0,0,0,.82,6.81l3.63-.48A9.8,9.8,0,0,0,220,127l.48-.22a.28.28,0,0,0,.16-.29c-.17-1,.37-3.48,2.56-5.88,3.16-3.48,5-6.75,3.76-11.38-1.4-5.16-6.6-7.25-11-6.64l-2.3.34c-4.41.67-7.59,1.15-9-1.29-.61-1-.93-1.2-1.07-1.21s-.44.26-.68.54Z"/><path class="cls-14" d="M208.52,137.75s-.76-3.14,2-3.42,8.88.62,10.5-2.41a7.76,7.76,0,0,1-1.27-1.83s1.66-1.8,3.62-1.38,4.54,3,0,6.72S212.14,138.56,208.52,137.75Z"/><path class="cls-2" d="M213.83,138.71a25.48,25.48,0,0,1-5.4-.59l-.22-.05-.06-.23a3.94,3.94,0,0,1,.41-2.87,2.5,2.5,0,0,1,1.88-1c.65-.07,1.49-.07,2.39-.07,2.72,0,6.4,0,7.68-1.92a7.18,7.18,0,0,1-1.14-1.74l-.09-.22.16-.17c.07-.08,1.82-2,4-1.5a3.65,3.65,0,0,1,2.75,2.5c.26,1.06,0,2.77-2.59,4.88A15.35,15.35,0,0,1,213.83,138.71Zm-5-1.27c2.41.51,9.48,1.56,14.25-2.3,1.82-1.48,2.63-2.9,2.33-4.12a2.82,2.82,0,0,0-2.17-1.94,3.76,3.76,0,0,0-3.09,1.1,8.67,8.67,0,0,0,1.09,1.49l.18.2-.12.23c-1.35,2.53-5.47,2.53-8.48,2.54-.88,0-1.7,0-2.32.06a1.77,1.77,0,0,0-1.34.7A3,3,0,0,0,208.84,137.44Z"/><path class="cls-6" d="M207.78,140.33C200,135,191.53,158,189.66,162.93a.76.76,0,0,1-1.18.35c-2.5-1.94-15.16-14-15.3-14.16-1.41-1.57-1.75-4.37-2-5.65a3.39,3.39,0,0,0-2.34-2.68h-.07l-1.86.66s.21,1.23,2,1.18l.17.1a13.06,13.06,0,0,1,.48,2.3,11.17,11.17,0,0,0-2.84-2.52,3.76,3.76,0,0,0-4.19.49c-2.32-.06-2,1.5-1.89,1.84a.1.1,0,0,1-.06.1c-1.41.54-1.08,1.46-1,1.69,0,0,0,.05,0,.06-.92.12-1.48,0-1.9.33s-.42.73.82,1c.45.09,1.35.15,1.35.15s.61,0,1.72-.12c1.75-.19,2.07,1.35,3,2.33s3.84,1.9,3.84,1.9c2.53,1.29,5.06,4.62,10.2,11.45,4.35,5.78,7.82,9.7,10,10.68a4.13,4.13,0,0,0,3.44,0C201.94,169.78,216.08,146,207.78,140.33Z"/><path class="cls-2" d="M190.31,175a4.53,4.53,0,0,1-1.86-.41c-2-.93-5.24-4.34-10.07-10.75-5.06-6.73-7.6-10.11-10.11-11.38-.09,0-3-.94-3.91-2a7.51,7.51,0,0,1-.69-.91c-.52-.78-1-1.46-2.09-1.34a16.4,16.4,0,0,1-1.75.13c-.05,0-.94-.07-1.4-.17-.73-.15-1.14-.41-1.21-.77a.65.65,0,0,1,.3-.66,2.39,2.39,0,0,1,1.25-.31l.52,0a1.21,1.21,0,0,1,0-.79,1.79,1.79,0,0,1,1-.92,1.63,1.63,0,0,1,.24-1.35,2.17,2.17,0,0,1,1.79-.66h0a4.07,4.07,0,0,1,4.38-.46,8.91,8.91,0,0,1,2.38,2,12.68,12.68,0,0,0-.32-1.37l0,0h0a1.91,1.91,0,0,1-2.11-1.39l0-.2,2.05-.73a.45.45,0,0,1,.23,0,3.64,3.64,0,0,1,2.51,2.88l.07.43c.23,1.4.62,3.74,1.84,5.1.08.08,12.73,12.15,15.27,14.13a.52.52,0,0,0,.45.09.55.55,0,0,0,.35-.33l.13-.35c5.24-13.9,10.1-21.64,14.43-23a4.35,4.35,0,0,1,3.93.63h0c2,1.36,2.84,3.72,2.56,7-.76,9.19-10.56,23.84-18.39,27.5A4.23,4.23,0,0,1,190.31,175Zm-28.47-27.25a2.66,2.66,0,0,1,2.24,1.57,6.75,6.75,0,0,0,.64.85c.86.92,3.7,1.83,3.73,1.84,2.65,1.34,5.21,4.75,10.33,11.54,4.7,6.25,7.93,9.71,9.87,10.6a3.88,3.88,0,0,0,3.23,0c7.71-3.6,17.36-18,18.11-27.09.26-3.11-.53-5.33-2.35-6.58h0a3.81,3.81,0,0,0-3.5-.56c-4.18,1.31-8.93,8.95-14.12,22.7l-.13.35a1,1,0,0,1-.68.63,1,1,0,0,1-.88-.18c-2.53-2-15.27-14.11-15.33-14.19-1.32-1.46-1.72-3.89-2-5.34l-.07-.42a3.1,3.1,0,0,0-2.13-2.48l-1.59.56a1.57,1.57,0,0,0,1.64.79H169l.3.18,0,.08a12.34,12.34,0,0,1,.49,2.35l.09.75-.51-.56a11,11,0,0,0-2.77-2.46,3.52,3.52,0,0,0-3.91.45l-.07.07h-.11a1.78,1.78,0,0,0-1.52.46,1.3,1.3,0,0,0-.13,1.07.32.32,0,0,1-.2.39,1.41,1.41,0,0,0-.88.69.85.85,0,0,0,0,.66l.05.11-.05.15a.32.32,0,0,1-.22.15c-.3,0-.56.06-.8.07a2.09,2.09,0,0,0-1,.22c-.06,0-.11.11-.1.16s.21.26.83.4a12.89,12.89,0,0,0,1.32.15s.59,0,1.67-.12Z"/><path class="cls-2" d="M166.63,144.16a9,9,0,0,0-4.1-.91l0-.49a9.47,9.47,0,0,1,4.34,1Z"/><path class="cls-2" d="M165.69,145.55a9,9,0,0,0-5-.4l-.1-.48a9.4,9.4,0,0,1,5.31.44Z"/><path class="cls-2" d="M159.7,146.91l-.14-.47c.12,0,3.17-.94,5.09-.06l-.2.45C162.69,146,159.73,146.9,159.7,146.91Z"/><path class="cls-4" d="M193.27,199.24c-4.57-3.64-4.69-9.44-4.44-12.18a1.38,1.38,0,0,1,1.66-1.23h0a1.38,1.38,0,0,1,1.09,1.47c-.21,2.2-.16,6.91,3.4,9.77a1.36,1.36,0,0,1,.32,1.78h0A1.39,1.39,0,0,1,193.27,199.24Z"/><path class="cls-2" d="M194.1,199.91a1.71,1.71,0,0,1-1.07-.38h0c-4.62-3.68-4.85-9.42-4.57-12.51a1.74,1.74,0,0,1,.7-1.25,1.78,1.78,0,0,1,1.4-.3,1.74,1.74,0,0,1,1.39,1.86c-.22,2.37-.09,6.75,3.27,9.45a1.76,1.76,0,0,1-.81,3.1A1.55,1.55,0,0,1,194.1,199.91Zm-3.9-13.73a1,1,0,0,0-.6.2,1,1,0,0,0-.4.71c-.26,2.94,0,8.39,4.3,11.86h0a1,1,0,0,0,.78.19,1.05,1.05,0,0,0,.7-.48,1,1,0,0,0-.24-1.3c-3.62-2.91-3.77-7.58-3.54-10.1a1,1,0,0,0-.79-1.06Z"/><path class="cls-5" d="M202.81,191.28h0a7.1,7.1,0,0,1-6.11-.18l-5.22-2.6a75.5,75.5,0,0,1-10.68-6.42l-.18-.13c-1.54-1.12-2.45-5.24-1-6.08l1.1,2.51a7.08,7.08,0,0,1,5.92.08h0a79.29,79.29,0,0,1,11.22,6.2l5.7.71C205.26,186.5,204.32,190.41,202.81,191.28Z"/><path class="cls-2" d="M200.14,192.14a8.1,8.1,0,0,1-3.55-.82l-5.22-2.6a76.05,76.05,0,0,1-10.72-6.44l-.18-.13c-1.17-.85-1.89-3.15-1.81-4.67a2.08,2.08,0,0,1,.85-1.82l.23-.13,1.11,2.51a7.43,7.43,0,0,1,5.9.2A80.68,80.68,0,0,1,198,184.42l5.75.75a2.78,2.78,0,0,1,1,2.52,4.87,4.87,0,0,1-1.78,3.8h0A5.64,5.64,0,0,1,200.14,192.14Zm-20.6-15.87a2,2,0,0,0-.4,1.23,5.69,5.69,0,0,0,1.62,4.25l.18.13a74.7,74.7,0,0,0,10.65,6.4l5.21,2.61a6.93,6.93,0,0,0,5.89.18,4.43,4.43,0,0,0,1.53-3.4,2.44,2.44,0,0,0-.74-2.06l-5.74-.75a81.48,81.48,0,0,0-11.19-6.18,6.85,6.85,0,0,0-5.69-.09l-.24.13Z"/><path class="cls-6" d="M202.81,187.83h0a7.1,7.1,0,0,1-6.11-.18l-5.22-2.6a75.5,75.5,0,0,1-10.68-6.42l-.18-.13c-1.54-1.12-1.61-2.58-.15-3.42l.26-.16a7.12,7.12,0,0,1,5.92.09h0a79.29,79.29,0,0,1,11.22,6.2l4.63,3.09C204.19,185.42,204.32,187,202.81,187.83Z"/><path class="cls-2" d="M200.14,188.68a8.09,8.09,0,0,1-3.55-.81l-5.22-2.6a76.05,76.05,0,0,1-10.72-6.44l-.18-.13a2.66,2.66,0,0,1-1.3-2.17,2.09,2.09,0,0,1,1.17-1.66l.27-.16a7.32,7.32,0,0,1,6.14.07A80.86,80.86,0,0,1,198,181l4.63,3.09a2.78,2.78,0,0,1,1.47,2.26,2.06,2.06,0,0,1-1.18,1.69h0A5.64,5.64,0,0,1,200.14,188.68ZM183.4,174.56a5.1,5.1,0,0,0-2.54.58l-.27.15a1.62,1.62,0,0,0-.93,1.27,2.16,2.16,0,0,0,1.1,1.74l.18.13a74.7,74.7,0,0,0,10.65,6.4l5.21,2.61a7,7,0,0,0,5.89.18,1.61,1.61,0,0,0,.93-1.29,2.36,2.36,0,0,0-1.25-1.83l-4.63-3.09a81.48,81.48,0,0,0-11.19-6.18A7.82,7.82,0,0,0,183.4,174.56Z"/><path class="cls-4" d="M227.53,194.72a10.13,10.13,0,0,1-1.49-.11A1.38,1.38,0,0,1,225,192.8h0a1.4,1.4,0,0,1,1.54-.91,4.89,4.89,0,0,0,5.19-2.08c.52-.86.49-1.83-.09-3.48a42.65,42.65,0,0,1-1.56-21.64c.07-.38.12-.75.16-1.1a1.37,1.37,0,0,1,1.37-1.24h0a1.38,1.38,0,0,1,1.38,1.5c-.05.43-.11.87-.19,1.32a39.88,39.88,0,0,0,1.44,20.24,6.6,6.6,0,0,1-.14,5.82A7.27,7.27,0,0,1,227.53,194.72Z"/><path class="cls-2" d="M227.53,195.1A10,10,0,0,1,226,195a1.7,1.7,0,0,1-1.21-.81,1.77,1.77,0,0,1,1.78-2.66,4.49,4.49,0,0,0,4.82-1.9c.45-.75.41-1.64-.13-3.16a43.08,43.08,0,0,1-1.57-21.83c.07-.38.12-.74.16-1.09a1.75,1.75,0,0,1,3-1,1.72,1.72,0,0,1,.44,1.33c-.05.43-.11.88-.19,1.35a39.45,39.45,0,0,0,1.42,20,7,7,0,0,1-.16,6.14A7.74,7.74,0,0,1,227.53,195.1Zm-1.24-2.86a1,1,0,0,0-.87,1.54.94.94,0,0,0,.68.46,9.73,9.73,0,0,0,1.43.11,6.9,6.9,0,0,0,6.22-3.32,6.23,6.23,0,0,0,.1-5.5,40.3,40.3,0,0,1-1.45-20.43c.08-.45.14-.88.18-1.3a1,1,0,0,0-.24-.75,1,1,0,0,0-1.76.56c0,.37-.09.74-.16,1.14A42.26,42.26,0,0,0,232,186.2c.63,1.76.64,2.82.07,3.79a5.27,5.27,0,0,1-5.58,2.26Z"/><path class="cls-6" d="M238.63,165.25h0a122.35,122.35,0,0,1-21.3,12.38l.6,2.38c-3,1.33-6.61-2.07-7-5.27l-1.21-9.65c-.49-4,2.16-9.37,5.86-11.92l.3-.21a168,168,0,0,1,24.22-14h0c3.81-1.77,9.25,1,8.58,5.69l-4.38,11.14A15,15,0,0,1,238.63,165.25Z"/><path class="cls-2" d="M216.53,180.55a4.77,4.77,0,0,1-2.31-.65,7.34,7.34,0,0,1-3.54-5.13l-1.21-9.65c-.51-4.08,2.16-9.53,6-12.15l.3-.21a167,167,0,0,1,24.26-14,6.75,6.75,0,0,1,6.72.77,5.35,5.35,0,0,1,2.2,5.18l-4.39,11.19a15.11,15.11,0,0,1-5.75,9.55,122.76,122.76,0,0,1-21.15,12.32l.6,2.38-.19.09A3.66,3.66,0,0,1,216.53,180.55Zm26.1-41.87a5.74,5.74,0,0,0-2.43.52,167.51,167.51,0,0,0-24.19,14l-.3.21c-3.6,2.49-6.24,7.84-5.76,11.69l1.21,9.65a6.85,6.85,0,0,0,3.3,4.76,3.81,3.81,0,0,0,3.18.4l-.6-2.38.19-.08a122.93,122.93,0,0,0,21.26-12.36h0a14.67,14.67,0,0,0,5.56-9.27l4.39-11.2a4.87,4.87,0,0,0-2-4.66A6.46,6.46,0,0,0,242.63,138.68Z"/><path class="cls-5" d="M241.29,166.9h0A122.35,122.35,0,0,1,220,179.28l-.66.3c-3,1.32-5.35,0-5.75-3.19l-1.21-9.65c-.49-4,2.17-9.37,5.86-11.92l.3-.21a167.5,167.5,0,0,1,24.23-14h0c3.8-1.77,6.48.77,5.81,5.5L247,157.46A15,15,0,0,1,241.29,166.9Z"/><path class="cls-2" d="M217.14,180.33a3.58,3.58,0,0,1-1.79-.45,4.37,4.37,0,0,1-2-3.46l-1.21-9.65c-.51-4.08,2.16-9.53,6-12.15l.3-.21a167.54,167.54,0,0,1,24.26-14,4.33,4.33,0,0,1,4.54.09c1.4,1,2,3.1,1.62,5.67l-1.62,11.33a15.15,15.15,0,0,1-5.76,9.6h0a122.15,122.15,0,0,1-21.34,12.4l-.66.3A5.75,5.75,0,0,1,217.14,180.33Zm27.91-40a5.29,5.29,0,0,0-2.19.54,166.67,166.67,0,0,0-24.19,14l-.3.21c-3.6,2.48-6.23,7.83-5.75,11.68l1.2,9.65a3.92,3.92,0,0,0,1.77,3.1,4,4,0,0,0,3.64-.11l.66-.29a122.93,122.93,0,0,0,21.26-12.36,14.67,14.67,0,0,0,5.56-9.27l1.61-11.33c.35-2.39-.17-4.29-1.42-5.21A3,3,0,0,0,245.05,140.31Z"/><path class="cls-2" d="M228.6,157.3a2.25,2.25,0,0,1-1,1.75c-.55.32-1,.06-1-.59a2.23,2.23,0,0,1,1-1.74C228.15,156.4,228.6,156.66,228.6,157.3Z"/><path class="cls-2" d="M236.2,152.91a2.22,2.22,0,0,1-1,1.75c-.55.32-1,.06-1-.58a2.23,2.23,0,0,1,1-1.75C235.75,152,236.2,152.27,236.2,152.91Z"/><path class="cls-2" d="M228.6,166.08a2.21,2.21,0,0,1-1,1.74c-.55.32-1,.06-1-.58a2.23,2.23,0,0,1,1-1.74C228.15,165.17,228.6,165.43,228.6,166.08Z"/><path class="cls-2" d="M236.2,161.69a2.21,2.21,0,0,1-1,1.74c-.55.32-1,.06-1-.58a2.23,2.23,0,0,1,1-1.74C235.75,160.79,236.2,161.05,236.2,161.69Z"/><path class="cls-14" d="M206.67,157.88c3.78-7.26,5.28-14.68,1.11-17.55-4.51-3.1-9.23,3.29-12.78,10.19C195,150.54,197.57,156.79,206.67,157.88Z"/><path class="cls-2" d="M206.88,158.29l-.26,0c-9.16-1.09-11.85-7.32-12-7.59l-.06-.16.08-.16c3.39-6.58,6.61-10.3,9.57-11A4.43,4.43,0,0,1,208,140c3.87,2.67,3.5,9.41-1,18Zm-11.46-7.76c.46,1,3.18,5.91,11,6.95,4.2-8.15,4.61-14.43,1.11-16.84a3.7,3.7,0,0,0-3.14-.62C201.7,140.71,198.67,144.24,195.42,150.53Z"/><path class="cls-2" d="M174.23,183.52a12.09,12.09,0,0,0-1.15-3.1l.44-.23a13.09,13.09,0,0,1,1.19,3.23Z"/><circle class="cls-2" cx="189.66" cy="214.15" r="0.88"/><path class="cls-2" d="M223.12,110.44h-.27c-1.91-.19-3.45-2.34-3.51-2.43l.4-.29s1.47,2.07,3.16,2.23a2.29,2.29,0,0,0,1.84-.7,1.15,1.15,0,0,0,.24-1.59,2.24,2.24,0,0,0-2.3-1c-.58.25-.54,1-.41,1.62l-.48.1c-.33-1.49.3-2,.7-2.17a2.7,2.7,0,0,1,2.9,1.14,1.63,1.63,0,0,1-.32,2.21A2.76,2.76,0,0,1,223.12,110.44Z"/></g></g></g></svg>