<svg version="1.2" xmlns="http://www.w3.org/2000/svg" viewBox="0 0 24 24" width="24" height="24"><style>.a{fill:none;stroke:#fff;stroke-linecap:round;stroke-linejoin:round;stroke-width:2}</style><path class="a" d="m14 10h3"/><path class="a" d="m9 9.5v-1"/><path class="a" d="m9 9.5c-1.8 0-2 0.4-2 1.3 0 0.9 0 1.2 2 1.2 2 0 2 0.2 2 1.2 0 0.7 0 1.3-2 1.3"/><path class="a" d="m9 9.5h2"/><path class="a" d="m9 14.5v1"/><path class="a" d="m9 14.5h-2"/><path class="a" d="m14 14h3"/><path fill-rule="evenodd" class="a" d="m6.2 19h11.6c1.1 0 1.7 0 2.1-0.2q0.6-0.3 0.9-0.9c0.2-0.4 0.2-1 0.2-2.1v-7.6c0-1.1 0-1.7-0.2-2.1q-0.3-0.6-0.9-0.9c-0.4-0.2-1-0.2-2.1-0.2h-11.6c-1.1 0-1.7 0-2.1 0.2q-0.6 0.3-0.9 0.9c-0.2 0.4-0.2 1-0.2 2.1v7.6c0 1.1 0 1.7 0.2 2.1q0.3 0.6 0.9 0.9c0.4 0.2 1 0.2 2.1 0.2z"/></svg>