<svg version="1.2" xmlns="http://www.w3.org/2000/svg" viewBox="0 0 24 24" width="24" height="24"><style>.a{fill:none;stroke:#fff;stroke-linecap:round;stroke-linejoin:round;stroke-width:2}</style><path fill-rule="evenodd" class="a" d="m3 8.8c0.4 0.4 0.9 0.7 1.5 0.7 1.1 0 2-0.9 2-2 0-0.6-0.3-1.1-0.7-1.5m12.4 0q-0.2 0-0.4 0h-11.6q-0.2 0-0.4 0zm-15.2 2.8c0-0.9 0.1-1.3 0.3-1.7q0.3-0.6 0.8-0.9c0.4-0.2 0.9-0.2 1.8-0.2zm0 0q0 0.2 0 0.4v5.6q0 0.2 0 0.4zm0 6.3l2.8 2.8c0.4-0.3 0.7-0.9 0.7-1.5 0-1.1-0.9-2-2-2-0.6 0-1.2 0.3-1.5 0.7zm0 0l2.8 2.8c-0.9 0-1.4 0-1.7-0.2q-0.6-0.3-0.9-0.9c-0.2-0.3-0.2-0.8-0.2-1.7zm2.8 2.8q0.2 0 0.4 0h11.6q0.2 0 0.3 0zm12.4 0l2.8-2.8c-0.3-0.4-0.9-0.7-1.5-0.7-1.1 0-2 0.9-2 2 0 0.6 0.3 1.2 0.7 1.5zm2.8-2.8q0-0.2 0-0.4v-5.6q0-0.2 0-0.3zm-2.8 2.8l2.8-2.8c0 0.8 0 1.3-0.2 1.7q-0.3 0.6-0.9 0.9c-0.3 0.2-0.8 0.2-1.7 0.2zm2.8-9.2l-2.8-2.8c-0.4 0.3-0.7 0.9-0.7 1.5 0 1.1 0.9 2 2 2 0.6 0 1.2-0.3 1.5-0.7zm0 0l-2.8-2.8c0.9 0 1.4 0 1.7 0.2q0.6 0.3 0.9 0.9c0.2 0.3 0.2 0.8 0.2 1.7zm-9 1.2c-1.1 0-2 0.9-2 2 0 1.1 0.9 2 2 2 1.1 0 2-0.9 2-2 0-1.1-0.9-2-2-2z"/></svg>